<?xml version="1.0" encoding="UTF-8"?>
<svg version="1.1" xmlns="http://www.w3.org/2000/svg" width="199" height="221">
<path d="M0 0 C8.25815214 -0.09276991 16.51608577 -0.16379982 24.77463055 -0.20724869 C28.60962547 -0.22810438 32.44426331 -0.25638415 36.27905273 -0.30175781 C39.98139253 -0.34528908 43.68338934 -0.36915229 47.38596535 -0.37950897 C48.79696869 -0.38688742 50.20795372 -0.40129614 51.61881065 -0.42292023 C53.59814448 -0.45204479 55.57782502 -0.45363467 57.55737305 -0.45410156 C58.68322311 -0.46298401 59.80907318 -0.47186646 60.96903992 -0.48101807 C64.67844105 0.10766965 66.36746208 1.36836225 69 4 C69 4.66 69 5.32 69 6 C69.66 6 70.32 6 71 6 C71 6.66 71 7.32 71 8 C72.65 8.66 74.3 9.32 76 10 C76 10.66 76 11.32 76 12 C77.65 12.66 79.3 13.32 81 14 C81 14.66 81 15.32 81 16 C81.66 16 82.32 16 83 16 C83 16.66 83 17.32 83 18 C83.66 18 84.32 18 85 18 C85 18.66 85 19.32 85 20 C85.598125 20.28875 86.19625 20.5775 86.8125 20.875 C89 22 89 22 92 24 C92 24.66 92 25.32 92 26 C93.65 26.66 95.3 27.32 97 28 C97 28.66 97 29.32 97 30 C97.66 30 98.32 30 99 30 C99 30.66 99 31.32 99 32 C99.598125 32.28875 100.19625 32.5775 100.8125 32.875 C103 34 103 34 106 36 C106 36.66 106 37.32 106 38 C107.65 38.66 109.3 39.32 111 40 C111 40.66 111 41.32 111 42 C111.66 42 112.32 42 113 42 C113 42.66 113 43.32 113 44 C113.99 44 114.98 44 116 44 C118.1875 45.875 118.1875 45.875 120 48 C120 48.66 120 49.32 120 50 C121.65 50.66 123.3 51.32 125 52 C125 52.66 125 53.32 125 54 C125.99 54 126.98 54 128 54 C130.1875 55.875 130.1875 55.875 132 58 C132 58.66 132 59.32 132 60 C132.66 60 133.32 60 134 60 C134 60.66 134 61.32 134 62 C134.99 62 135.98 62 137 62 C137 62.66 137 63.32 137 64 C137.66 64 138.32 64 139 64 C139 64.66 139 65.32 139 66 C139.66 66 140.32 66 141 66 C141 66.66 141 67.32 141 68 C141.99 68.33 142.98 68.66 144 69 C144 69.66 144 70.32 144 71 C140.36061667 72.81969167 136.06865072 72.19086906 132.0625 72.1875 C131.08063721 72.18669434 130.09877441 72.18588867 129.0871582 72.18505859 C122.58167465 72.13163622 116.15699517 71.80878906 109.6875 71.125 C108.94314697 71.04660889 108.19879395 70.96821777 107.43188477 70.88745117 C102.20133295 70.27371897 97.11973887 69.22488982 92 68 C92 67.34 92 66.68 92 66 C91.154375 66.061875 90.30875 66.12375 89.4375 66.1875 C85.34712777 65.96438879 82.70528376 64.72487347 79 63 C77.7625 62.566875 76.525 62.13375 75.25 61.6875 C70.76104297 60.03921109 66.67794395 57.73918853 62.515625 55.40234375 C60.36849243 54.20541737 58.20836657 53.07838461 56 52 C56 51.34 56 50.68 56 50 C55.01 50 54.02 50 53 50 C53 49.34 53 48.68 53 48 C52.1646875 47.8453125 52.1646875 47.8453125 51.3125 47.6875 C48.5230899 46.85821592 46.3860936 45.65700944 44 44 C44 43.34 44 42.68 44 42 C42.35 41.34 40.7 40.68 39 40 C39 39.34 39 38.68 39 38 C38.34 38 37.68 38 37 38 C37 37.34 37 36.68 37 36 C36.01 36 35.02 36 34 36 C34 35.34 34 34.68 34 34 C33.34 34 32.68 34 32 34 C32 33.34 32 32.68 32 32 C31.34 32 30.68 32 30 32 C30 31.34 30 30.68 30 30 C29.01 30 28.02 30 27 30 C27 29.34 27 28.68 27 28 C26.34 28 25.68 28 25 28 C25 27.34 25 26.68 25 26 C24.34 26 23.68 26 23 26 C23 25.34 23 24.68 23 24 C22.34 24 21.68 24 21 24 C21 23.34 21 22.68 21 22 C19.68 21.34 18.36 20.68 17 20 C17 19.34 17 18.68 17 18 C16.4225 17.7525 15.845 17.505 15.25 17.25 C12.67060021 15.81700012 10.93878408 14.21575324 9 12 C9 11.34 9 10.68 9 10 C8.34 10 7.68 10 7 10 C7 9.34 7 8.68 7 8 C6.34 8 5.68 8 5 8 C5 7.34 5 6.68 5 6 C4.34 6 3.68 6 3 6 C3 5.34 3 4.68 3 4 C2.34 4 1.68 4 1 4 C0.67 2.68 0.34 1.36 0 0 Z " fill="#0261DF" transform="translate(29,24)"/>
<path d="M0 0 C1.72974441 0.00015918 3.45949355 0.0058569 5.18920898 0.01586914 C6.09783188 0.01728409 7.00645477 0.01869904 7.94261169 0.02015686 C10.85687494 0.02577346 13.77106254 0.03832874 16.68530273 0.05102539 C18.65600475 0.05603825 20.62670797 0.06060153 22.59741211 0.06469727 C27.43923832 0.07574828 32.28100768 0.09302401 37.12280273 0.11352539 C37.12280273 0.77352539 37.12280273 1.43352539 37.12280273 2.11352539 C34.64780273 3.10352539 34.64780273 3.10352539 32.12280273 4.11352539 C32.12280273 4.77352539 32.12280273 5.43352539 32.12280273 6.11352539 C31.46280273 6.11352539 30.80280273 6.11352539 30.12280273 6.11352539 C30.12280273 6.77352539 30.12280273 7.43352539 30.12280273 8.11352539 C25.6522145 12.11352539 25.6522145 12.11352539 23.12280273 12.11352539 C23.12280273 12.77352539 23.12280273 13.43352539 23.12280273 14.11352539 C18.6522145 18.11352539 18.6522145 18.11352539 16.12280273 18.11352539 C16.12280273 18.77352539 16.12280273 19.43352539 16.12280273 20.11352539 C15.46280273 20.11352539 14.80280273 20.11352539 14.12280273 20.11352539 C14.12280273 20.77352539 14.12280273 21.43352539 14.12280273 22.11352539 C13.13280273 22.11352539 12.14280273 22.11352539 11.12280273 22.11352539 C11.12280273 22.77352539 11.12280273 23.43352539 11.12280273 24.11352539 C9.66186523 25.62133789 9.66186523 25.62133789 7.74780273 27.23852539 C7.12131836 27.77735352 6.49483398 28.31618164 5.84936523 28.87133789 C4.12280273 30.11352539 4.12280273 30.11352539 2.12280273 30.11352539 C2.12280273 30.77352539 2.12280273 31.43352539 2.12280273 32.11352539 C1.46280273 32.11352539 0.80280273 32.11352539 0.12280273 32.11352539 C0.12280273 32.77352539 0.12280273 33.43352539 0.12280273 34.11352539 C-0.86719727 34.11352539 -1.85719727 34.11352539 -2.87719727 34.11352539 C-2.87719727 34.77352539 -2.87719727 35.43352539 -2.87719727 36.11352539 C-3.53719727 36.11352539 -4.19719727 36.11352539 -4.87719727 36.11352539 C-4.87719727 36.77352539 -4.87719727 37.43352539 -4.87719727 38.11352539 C-5.66094727 38.36102539 -6.44469727 38.60852539 -7.25219727 38.86352539 C-10.20036835 40.26741638 -10.77967497 41.12028276 -11.87719727 44.11352539 C-12.53719727 44.11352539 -13.19719727 44.11352539 -13.87719727 44.11352539 C-13.87719727 44.77352539 -13.87719727 45.43352539 -13.87719727 46.11352539 C-15.52719727 46.77352539 -17.17719727 47.43352539 -18.87719727 48.11352539 C-18.87719727 48.77352539 -18.87719727 49.43352539 -18.87719727 50.11352539 C-20.68969727 52.23852539 -20.68969727 52.23852539 -22.87719727 54.11352539 C-23.86719727 54.11352539 -24.85719727 54.11352539 -25.87719727 54.11352539 C-25.87719727 54.77352539 -25.87719727 55.43352539 -25.87719727 56.11352539 C-27.52719727 56.77352539 -29.17719727 57.43352539 -30.87719727 58.11352539 C-30.87719727 58.77352539 -30.87719727 59.43352539 -30.87719727 60.11352539 C-31.53719727 60.11352539 -32.19719727 60.11352539 -32.87719727 60.11352539 C-32.87719727 60.77352539 -32.87719727 61.43352539 -32.87719727 62.11352539 C-33.53719727 62.11352539 -34.19719727 62.11352539 -34.87719727 62.11352539 C-34.87719727 62.77352539 -34.87719727 63.43352539 -34.87719727 64.11352539 C-35.86719727 64.11352539 -36.85719727 64.11352539 -37.87719727 64.11352539 C-38.86719727 66.09352539 -38.86719727 66.09352539 -39.87719727 68.11352539 C-40.53719727 68.11352539 -41.19719727 68.11352539 -41.87719727 68.11352539 C-41.87719727 68.77352539 -41.87719727 69.43352539 -41.87719727 70.11352539 C-49.28448474 71.10781526 -56.53832833 71.2438876 -64.00610352 71.21118164 C-65.8514695 71.20905922 -65.8514695 71.20905922 -67.7341156 71.20689392 C-71.63600163 71.20132824 -75.53782878 71.1887821 -79.43969727 71.17602539 C-82.09659747 71.17043805 -84.75349712 71.16644383 -87.41040039 71.16235352 C-93.89935253 71.15137005 -100.38827069 71.13466633 -106.87719727 71.11352539 C-106.54719727 69.46352539 -106.21719727 67.81352539 -105.87719727 66.11352539 C-105.21719727 66.11352539 -104.55719727 66.11352539 -103.87719727 66.11352539 C-103.87719727 65.45352539 -103.87719727 64.79352539 -103.87719727 64.11352539 C-103.21719727 64.11352539 -102.55719727 64.11352539 -101.87719727 64.11352539 C-101.87719727 63.45352539 -101.87719727 62.79352539 -101.87719727 62.11352539 C-101.21719727 62.11352539 -100.55719727 62.11352539 -99.87719727 62.11352539 C-99.87719727 61.45352539 -99.87719727 60.79352539 -99.87719727 60.11352539 C-99.21719727 60.11352539 -98.55719727 60.11352539 -97.87719727 60.11352539 C-97.87719727 59.45352539 -97.87719727 58.79352539 -97.87719727 58.11352539 C-97.21719727 58.11352539 -96.55719727 58.11352539 -95.87719727 58.11352539 C-95.87719727 57.45352539 -95.87719727 56.79352539 -95.87719727 56.11352539 C-95.21719727 56.11352539 -94.55719727 56.11352539 -93.87719727 56.11352539 C-93.87719727 55.45352539 -93.87719727 54.79352539 -93.87719727 54.11352539 C-93.21719727 54.11352539 -92.55719727 54.11352539 -91.87719727 54.11352539 C-91.87719727 53.45352539 -91.87719727 52.79352539 -91.87719727 52.11352539 C-91.21719727 52.11352539 -90.55719727 52.11352539 -89.87719727 52.11352539 C-89.87719727 51.45352539 -89.87719727 50.79352539 -89.87719727 50.11352539 C-89.21719727 50.11352539 -88.55719727 50.11352539 -87.87719727 50.11352539 C-87.87719727 49.45352539 -87.87719727 48.79352539 -87.87719727 48.11352539 C-87.21719727 48.11352539 -86.55719727 48.11352539 -85.87719727 48.11352539 C-85.87719727 47.45352539 -85.87719727 46.79352539 -85.87719727 46.11352539 C-85.21719727 46.11352539 -84.55719727 46.11352539 -83.87719727 46.11352539 C-83.87719727 45.45352539 -83.87719727 44.79352539 -83.87719727 44.11352539 C-79.40660903 40.11352539 -79.40660903 40.11352539 -76.87719727 40.11352539 C-76.87719727 39.45352539 -76.87719727 38.79352539 -76.87719727 38.11352539 C-75.22719727 37.45352539 -73.57719727 36.79352539 -71.87719727 36.11352539 C-71.87719727 35.45352539 -71.87719727 34.79352539 -71.87719727 34.11352539 C-71.21719727 34.11352539 -70.55719727 34.11352539 -69.87719727 34.11352539 C-69.87719727 33.45352539 -69.87719727 32.79352539 -69.87719727 32.11352539 C-68.22719727 31.45352539 -66.57719727 30.79352539 -64.87719727 30.11352539 C-64.87719727 29.45352539 -64.87719727 28.79352539 -64.87719727 28.11352539 C-63.88719727 28.11352539 -62.89719727 28.11352539 -61.87719727 28.11352539 C-61.87719727 27.45352539 -61.87719727 26.79352539 -61.87719727 26.11352539 C-56.58307962 22.11352539 -56.58307962 22.11352539 -52.87719727 22.11352539 C-52.87719727 21.45352539 -52.87719727 20.79352539 -52.87719727 20.11352539 C-49.87719727 18.11352539 -49.87719727 18.11352539 -46.87719727 18.11352539 C-46.87719727 17.45352539 -46.87719727 16.79352539 -46.87719727 16.11352539 C-44.2298081 14.65289689 -42.98271392 14.11352539 -39.87719727 14.11352539 C-39.87719727 13.45352539 -39.87719727 12.79352539 -39.87719727 12.11352539 C-36.50622343 10.6153148 -34.67277607 10.11352539 -30.87719727 10.11352539 C-30.87719727 9.45352539 -30.87719727 8.79352539 -30.87719727 8.11352539 C-29.22719727 8.11352539 -27.57719727 8.11352539 -25.87719727 8.11352539 C-25.87719727 7.45352539 -25.87719727 6.79352539 -25.87719727 6.11352539 C-24.59522461 5.80608398 -24.59522461 5.80608398 -23.28735352 5.49243164 C-22.18262695 5.22301758 -21.07790039 4.95360352 -19.93969727 4.67602539 C-18.83754883 4.40918945 -17.73540039 4.14235352 -16.59985352 3.86743164 C-13.98298473 3.38356814 -13.98298473 3.38356814 -12.87719727 2.11352539 C-10.81990557 1.79429047 -8.76106206 1.60191187 -6.68969727 1.39477539 C-3.3819004 0.88149657 -4.26304713 0.12482318 0 0 Z " fill="#0262E0" transform="translate(135.877197265625,113.886474609375)"/>
<path d="M0 0 C13.53 0 27.06 0 41 0 C41 0.66 41 1.32 41 2 C39.35 2.66 37.7 3.32 36 4 C36 4.66 36 5.32 36 6 C35.34 6 34.68 6 34 6 C34 6.66 34 7.32 34 8 C29.52941176 12 29.52941176 12 27 12 C27 12.66 27 13.32 27 14 C22.52941176 18 22.52941176 18 20 18 C20 18.66 20 19.32 20 20 C19.34 20 18.68 20 18 20 C18 20.66 18 21.32 18 22 C17.01 22 16.02 22 15 22 C14.67 22.66 14.34 23.32 14 24 C13.34 22.02 12.68 20.04 12 18 C13.32 18 14.64 18 16 18 C16 17.34 16 16.68 16 16 C17.32 16 18.64 16 20 16 C20.66 14.68 21.32 13.36 22 12 C23.32 12 24.64 12 26 12 C26 10.68 26 9.36 26 8 C24.68 8 23.36 8 22 8 C22 7.34 22 6.68 22 6 C20.68 6 19.36 6 18 6 C18 6.66 18 7.32 18 8 C16.68 8 15.36 8 14 8 C14 7.34 14 6.68 14 6 C13.34 6 12.68 6 12 6 C12 4.68 12 3.36 12 2 C7.71 2 3.42 2 -1 2 C-0.67 1.34 -0.34 0.68 0 0 Z " fill="#045AD0" transform="translate(132,114)"/>
<path d="M0 0 C21.12 0 42.24 0 64 0 C64.495 0.99 64.495 0.99 65 2 C47.84 2 30.68 2 13 2 C13 2.66 13 3.32 13 4 C12.34 4 11.68 4 11 4 C11 5.32 11 6.64 11 8 C11.66 8 12.32 8 13 8 C13.33 10.64 13.66 13.28 14 16 C12.2925002 14.71937515 10.62626404 13.38232443 9 12 C9 11.34 9 10.68 9 10 C8.34 10 7.68 10 7 10 C7 9.34 7 8.68 7 8 C6.34 8 5.68 8 5 8 C5 7.34 5 6.68 5 6 C4.34 6 3.68 6 3 6 C3 5.34 3 4.68 3 4 C2.34 4 1.68 4 1 4 C0.67 2.68 0.34 1.36 0 0 Z " fill="#095AC8" transform="translate(29,24)"/>
<path d="M0 0 C1.98 0 3.96 0 6 0 C6 1.32 6 2.64 6 4 C5.34 4 4.68 4 4 4 C4 4.66 4 5.32 4 6 C3.01 6.66 2.02 7.32 1 8 C0.67 8.99 0.34 9.98 0 11 C1.87703613 10.9388501 1.87703613 10.9388501 3.79199219 10.87646484 C8.43591258 10.72796378 13.08014961 10.59333594 17.72460938 10.46289062 C19.73448854 10.40450162 21.74426217 10.34235355 23.75390625 10.27636719 C26.6430337 10.18215651 29.53227127 10.10148312 32.421875 10.0234375 C33.31992859 9.99124115 34.21798218 9.9590448 35.14324951 9.9258728 C35.98381897 9.90570099 36.82438843 9.88552917 37.69042969 9.86474609 C38.42767273 9.84253998 39.16491577 9.82033386 39.92449951 9.79745483 C42.32553416 10.03176842 43.92075766 10.80873456 46 12 C40.23371829 13.24177006 34.56109163 13.12674309 28.6953125 13.09765625 C27.61619598 13.0962413 26.53707947 13.09482635 25.42526245 13.09336853 C21.99181298 13.08778844 18.55842964 13.07523955 15.125 13.0625 C12.79166761 13.05748243 10.4583342 13.05291997 8.125 13.04882812 C2.41664425 13.03782553 -3.29167315 13.02110721 -9 13 C-8.67 11.35 -8.34 9.7 -8 8 C-7.34 8 -6.68 8 -6 8 C-6 7.34 -6 6.68 -6 6 C-5.34 6 -4.68 6 -4 6 C-4 5.34 -4 4.68 -4 4 C-3.34 4 -2.68 4 -2 4 C-2 3.34 -2 2.68 -2 2 C-1.34 2 -0.68 2 0 2 C0 1.34 0 0.68 0 0 Z " fill="#0257CD" transform="translate(38,172)"/>
<path d="M0 0 C21.12 0 42.24 0 64 0 C64.495 0.99 64.495 0.99 65 2 C44.54 2 24.08 2 3 2 C3 2.66 3 3.32 3 4 C2.34 4 1.68 4 1 4 C0.67 2.68 0.34 1.36 0 0 Z " fill="#0242A5" transform="translate(29,24)"/>
<path d="M0 0 C1.98 0 3.96 0 6 0 C5.67 0.66 5.34 1.32 5 2 C4.34 2 3.68 2 3 2 C3 2.66 3 3.32 3 4 C1.1875 6.125 1.1875 6.125 -1 8 C-1.99 8 -2.98 8 -4 8 C-4 8.66 -4 9.32 -4 10 C-5.65 10.66 -7.3 11.32 -9 12 C-9 12.66 -9 13.32 -9 14 C-9.66 14 -10.32 14 -11 14 C-11 14.66 -11 15.32 -11 16 C-11.66 16 -12.32 16 -13 16 C-13 16.66 -13 17.32 -13 18 C-13.66 17.67 -14.32 17.34 -15 17 C-13.68 14.03 -12.36 11.06 -11 8 C-10.67 8.66 -10.34 9.32 -10 10 C-9.34 9.67 -8.68 9.34 -8 9 C-8 8.01 -8 7.02 -8 6 C-6.02 6 -4.04 6 -2 6 C-2 5.34 -2 4.68 -2 4 C-1.34 4 -0.68 4 0 4 C0 2.68 0 1.36 0 0 Z " fill="#084DB4" transform="translate(114,160)"/>
<path d="M0 0 C1.32 0.66 2.64 1.32 4 2 C3.01 2.33 2.02 2.66 1 3 C1 3.66 1 4.32 1 5 C-3.47058824 9 -3.47058824 9 -6 9 C-6 9.66 -6 10.32 -6 11 C-6.66 11 -7.32 11 -8 11 C-8 11.66 -8 12.32 -8 13 C-8.99 13 -9.98 13 -11 13 C-11.33 13.66 -11.66 14.32 -12 15 C-12.66 13.02 -13.32 11.04 -14 9 C-12.68 9 -11.36 9 -10 9 C-10 8.34 -10 7.68 -10 7 C-8.68 7 -7.36 7 -6 7 C-5.34 5.68 -4.68 4.36 -4 3 C-2.68 3 -1.36 3 0 3 C0 2.01 0 1.02 0 0 Z " fill="#064EB5" transform="translate(158,123)"/>
<path d="M0 0 C0.66 0 1.32 0 2 0 C1.67 1.98 1.34 3.96 1 6 C1.598125 6.103125 2.19625 6.20625 2.8125 6.3125 C5.28243264 7.08876455 6.32251235 8.07088921 8 10 C4.24654344 9.28028381 1.13908031 7.66887798 -2.25 5.9375 C-3.32765625 5.38964844 -4.4053125 4.84179688 -5.515625 4.27734375 C-6.33546875 3.85582031 -7.1553125 3.43429688 -8 3 C-8 2.67 -8 2.34 -8 2 C-6.865625 1.855625 -5.73125 1.71125 -4.5625 1.5625 C-1.19222799 1.38828522 -1.19222799 1.38828522 0 0 Z " fill="#07449D" transform="translate(99,76)"/>
<path d="M0 0 C0.99 0 1.98 0 3 0 C3 0.66 3 1.32 3 2 C3.66 2 4.32 2 5 2 C5 2.66 5 3.32 5 4 C5.66 4 6.32 4 7 4 C7.33 5.32 7.66 6.64 8 8 C5.03 8 2.06 8 -1 8 C-1 7.34 -1 6.68 -1 6 C-0.34 6 0.32 6 1 6 C0.67 4.02 0.34 2.04 0 0 Z " fill="#0454C3" transform="translate(163,86)"/>
<path d="M0 0 C0.66 0 1.32 0 2 0 C2 0.66 2 1.32 2 2 C3.32 2 4.64 2 6 2 C6 2.66 6 3.32 6 4 C9.3 4 12.6 4 16 4 C16 4.66 16 5.32 16 6 C9.34949576 6.24991456 3.43013467 5.73955334 -3 4 C-3 3.34 -3 2.68 -3 2 C-2.01 2 -1.02 2 0 2 C0 1.34 0 0.68 0 0 Z " fill="#0A4296" transform="translate(124,88)"/>
<path d="M0 0 C1.98 0.99 1.98 0.99 4 2 C4 2.66 4 3.32 4 4 C6.475 4.99 6.475 4.99 9 6 C9 6.66 9 7.32 9 8 C9.66 8 10.32 8 11 8 C11 8.66 11 9.32 11 10 C7.28400809 10.20086443 6.22791555 10.1519437 3 8 C2.34 7.67 1.68 7.34 1 7 C0.59270772 4.67843403 0.25561323 2.3431213 0 0 Z " fill="#0851B6" transform="translate(101,32)"/>
<path d="M0 0 C0.66 0.33 1.32 0.66 2 1 C1.34 2.98 0.68 4.96 0 7 C0.66 7.66 1.32 8.32 2 9 C-0.31 9 -2.62 9 -5 9 C-4.67 7.35 -4.34 5.7 -4 4 C-3.34 4 -2.68 4 -2 4 C-2 3.34 -2 2.68 -2 2 C-1.34 2 -0.68 2 0 2 C0 1.34 0 0.68 0 0 Z " fill="#0A3A7F" transform="translate(34,176)"/>
<path d="M0 0 C3 0 3 0 5.1875 1.875 C7 4 7 4 7 6 C7.66 6 8.32 6 9 6 C9 6.66 9 7.32 9 8 C8.01 8 7.02 8 6 8 C6 7.34 6 6.68 6 6 C4.35 6 2.7 6 1 6 C1.33 4.68 1.66 3.36 2 2 C1.34 2 0.68 2 0 2 C0 1.34 0 0.68 0 0 Z " fill="#09429C" transform="translate(154,78)"/>
<path d="M0 0 C0.66 0 1.32 0 2 0 C2.66 1.32 3.32 2.64 4 4 C1.69 4.66 -0.62 5.32 -3 6 C-3 6.66 -3 7.32 -3 8 C-3.99 8 -4.98 8 -6 8 C-6 7.34 -6 6.68 -6 6 C-5.34 6 -4.68 6 -4 6 C-4 5.34 -4 4.68 -4 4 C-3.34 4 -2.68 4 -2 4 C-2 3.34 -2 2.68 -2 2 C-1.34 2 -0.68 2 0 2 C0 1.34 0 0.68 0 0 Z " fill="#0845A1" transform="translate(50,160)"/>
<path d="M0 0 C0.33 0.66 0.66 1.32 1 2 C1.99 2.33 2.98 2.66 4 3 C3.01 3.33 2.02 3.66 1 4 C-0.20882096 6.00016466 -0.20882096 6.00016466 -1 8 C-1.66 8 -2.32 8 -3 8 C-3 8.66 -3 9.32 -3 10 C-3.66 10 -4.32 10 -5 10 C-5 8.68 -5 7.36 -5 6 C-3.68 6 -2.36 6 -1 6 C-0.67 4.02 -0.34 2.04 0 0 Z " fill="#09449D" transform="translate(125,150)"/>
<path d="M0 0 C1.65 0 3.3 0 5 0 C5 0.66 5 1.32 5 2 C6.32 2 7.64 2 9 2 C9 2.66 9 3.32 9 4 C8.34 4 7.68 4 7 4 C7 4.66 7 5.32 7 6 C6.34 6 5.68 6 5 6 C5 5.34 5 4.68 5 4 C4.01 4 3.02 4 2 4 C2 3.34 2 2.68 2 2 C1.34 2 0.68 2 0 2 C0 1.34 0 0.68 0 0 Z " fill="#074FB2" transform="translate(61,56)"/>
<path d="M0 0 C0.99 0.33 1.98 0.66 3 1 C4 5.75 4 5.75 4 8 C3.34 8 2.68 8 2 8 C2 7.34 2 6.68 2 6 C0.68 5.34 -0.64 4.68 -2 4 C-2 3.34 -2 2.68 -2 2 C-1.34 2 -0.68 2 0 2 C0 1.34 0 0.68 0 0 Z " fill="#0751B6" transform="translate(48,40)"/>
<path d="M0 0 C1.98 0 3.96 0 6 0 C5.67 0.66 5.34 1.32 5 2 C4.34 2 3.68 2 3 2 C3 2.66 3 3.32 3 4 C1.70766393 5.37310707 0.37562854 6.71034824 -1 8 C-1.66 7.67 -2.32 7.34 -3 7 C-2.67 6.01 -2.34 5.02 -2 4 C-1.34 4 -0.68 4 0 4 C0 2.68 0 1.36 0 0 Z " fill="#084193" transform="translate(114,160)"/>
<path d="M0 0 C2.64 0 5.28 0 8 0 C8 1.98 8 3.96 8 6 C7.34 6 6.68 6 6 6 C6 5.34 6 4.68 6 4 C5.38125 3.896875 4.7625 3.79375 4.125 3.6875 C2 3 2 3 0 0 Z " fill="#09459D" transform="translate(76,68)"/>
<path d="M0 0 C2.92879371 0.62759865 5.36095629 1.58622659 8 3 C8 3.99 8 4.98 8 6 C7.01 6 6.02 6 5 6 C5 5.34 5 4.68 5 4 C2.525 3.01 2.525 3.01 0 2 C0 1.34 0 0.68 0 0 Z " fill="#083F96" transform="translate(68,62)"/>
<path d="M0 0 C0.99 0 1.98 0 3 0 C3 0.66 3 1.32 3 2 C3.66 2 4.32 2 5 2 C5 2.66 5 3.32 5 4 C3.02 4.99 3.02 4.99 1 6 C1 5.34 1 4.68 1 4 C0.34 4 -0.32 4 -1 4 C-0.67 2.68 -0.34 1.36 0 0 Z " fill="#0456BA" transform="translate(161,118)"/>
<path d="M0 0 C0.99 0 1.98 0 3 0 C3 2 3 2 1.25 4.125 C-1 6 -1 6 -5 6 C-5 5.34 -5 4.68 -5 4 C-3.35 3.34 -1.7 2.68 0 2 C0 1.34 0 0.68 0 0 Z " fill="#0A3E93" transform="translate(71,142)"/>
<path d="M0 0 C0.66 0 1.32 0 2 0 C2 0.66 2 1.32 2 2 C2.66 2 3.32 2 4 2 C4 1.34 4 0.68 4 0 C4.99 0.33 5.98 0.66 7 1 C4.03 3.475 4.03 3.475 1 6 C0.67 4.02 0.34 2.04 0 0 Z " fill="#0B4AA1" transform="translate(138,138)"/>
<path d="M0 0 C-0.33 1.32 -0.66 2.64 -1 4 C-1.99 4 -2.98 4 -4 4 C-4.33 4.66 -4.66 5.32 -5 6 C-5.99 6 -6.98 6 -8 6 C-8 5.34 -8 4.68 -8 4 C-2.58823529 0 -2.58823529 0 0 0 Z " fill="#0A3C8F" transform="translate(82,136)"/>
<path d="M0 0 C1.98 0.99 1.98 0.99 4 2 C4 2.66 4 3.32 4 4 C4.66 4 5.32 4 6 4 C6 4.66 6 5.32 6 6 C4.35 6 2.7 6 1 6 C0.67 4.02 0.34 2.04 0 0 Z " fill="#073C89" transform="translate(106,36)"/>
<path d="M0 0 C1.98 0.99 1.98 0.99 4 2 C4 2.66 4 3.32 4 4 C4.66 4 5.32 4 6 4 C6 4.66 6 5.32 6 6 C5.01 6 4.02 6 3 6 C3 5.34 3 4.68 3 4 C2.01 4 1.02 4 0 4 C0 2.68 0 1.36 0 0 Z " fill="#074694" transform="translate(122,50)"/>
</svg>
