<?xml version="1.0" encoding="UTF-8"?>
<svg version="1.1" xmlns="http://www.w3.org/2000/svg" width="998" height="1200">
<path d="M0 0 C1.00519684 -0.0065712 2.01039368 -0.0131424 3.04605103 -0.01991272 C6.34352731 -0.03947 9.64095811 -0.05127786 12.93847656 -0.0612793 C14.08121284 -0.06535482 15.22394913 -0.06943035 16.40131378 -0.07362938 C22.46708489 -0.09443012 28.53283387 -0.10874957 34.59863281 -0.11816406 C39.5499322 -0.12696329 44.5009454 -0.14770128 49.45214844 -0.1796875 C102.90910793 -0.51727609 102.90910793 -0.51727609 128.32910156 4.17700195 C129.21786987 4.33381439 130.10663818 4.49062683 131.02233887 4.65219116 C135.99024291 5.53701345 140.907866 6.56247187 145.82910156 7.67700195 C147.15047752 7.96326191 148.47209539 8.24840739 149.79394531 8.5324707 C162.78149385 11.35598569 175.57575003 14.88398071 188.32910156 18.61450195 C189.87138428 19.06563354 189.87138428 19.06563354 191.44482422 19.52587891 C201.94214558 22.61938398 212.3781905 25.83334065 222.49707031 30.02856445 C224.78161124 30.95498519 227.07120255 31.83739128 229.37988281 32.70043945 C238.40280491 36.09286201 247.03543433 39.86216808 255.60253906 44.27856445 C258.94425951 45.999953 262.33704024 47.57417788 265.76660156 49.11450195 C279.79035444 55.52980691 293.14100339 63.20969801 306.32910156 71.17700195 C307.25029785 71.7306543 308.17149414 72.28430664 309.12060547 72.85473633 C312.04996118 74.61963067 314.97180287 76.39634848 317.89160156 78.17700195 C319.29490723 79.02343262 319.29490723 79.02343262 320.7265625 79.88696289 C321.58668945 80.41580078 322.44681641 80.94463867 323.33300781 81.48950195 C324.10459229 81.96000977 324.87617676 82.43051758 325.67114258 82.9152832 C326.21826904 83.33165039 326.76539551 83.74801758 327.32910156 84.17700195 C327.32910156 84.83700195 327.32910156 85.49700195 327.32910156 86.17700195 C327.97621094 86.38196289 328.62332031 86.58692383 329.29003906 86.7980957 C333.57953548 88.74435822 337.16764623 91.4584294 340.95410156 94.23950195 C341.75589844 94.82368896 342.55769531 95.40787598 343.38378906 96.00976562 C349.54789599 100.5315606 355.46933825 105.26747053 361.32910156 110.17700195 C363.09615353 111.59838244 364.86692723 113.01514993 366.64160156 114.42700195 C367.44984375 115.07411133 368.25808594 115.7212207 369.09082031 116.38793945 C370.48517105 117.50244668 371.88301523 118.61261469 373.28613281 119.71606445 C374.67076115 120.8250642 376.00704346 121.99410786 377.32910156 123.17700195 C377.32910156 123.83700195 377.32910156 124.49700195 377.32910156 125.17700195 C377.92722656 125.28012695 378.52535156 125.38325195 379.14160156 125.48950195 C381.64168442 126.27524228 382.70445238 127.14619048 384.32910156 129.17700195 C384.32910156 129.83700195 384.32910156 130.49700195 384.32910156 131.17700195 C385.20888672 131.5637207 385.20888672 131.5637207 386.10644531 131.95825195 C388.50247279 133.27206667 390.01821708 134.69884206 391.89160156 136.67700195 C394.00434379 138.89796928 395.74523782 140.45442612 398.32910156 142.17700195 C398.32910156 142.83700195 398.32910156 143.49700195 398.32910156 144.17700195 C398.98910156 144.17700195 399.64910156 144.17700195 400.32910156 144.17700195 C400.32910156 144.83700195 400.32910156 145.49700195 400.32910156 146.17700195 C401.31910156 146.50700195 402.30910156 146.83700195 403.32910156 147.17700195 C403.32910156 147.83700195 403.32910156 148.49700195 403.32910156 149.17700195 C403.98910156 149.17700195 404.64910156 149.17700195 405.32910156 149.17700195 C405.32910156 149.83700195 405.32910156 150.49700195 405.32910156 151.17700195 C406.31910156 151.50700195 407.30910156 151.83700195 408.32910156 152.17700195 C410.04785156 153.91918945 410.04785156 153.91918945 411.82910156 156.05200195 C414.33175477 159.03084727 414.33175477 159.03084727 417.04785156 161.80981445 C418.32910156 163.17700195 418.32910156 163.17700195 418.32910156 165.17700195 C418.98910156 165.17700195 419.64910156 165.17700195 420.32910156 165.17700195 C424.32910156 169.64759019 424.32910156 169.64759019 424.32910156 172.17700195 C425.22628906 172.54825195 425.22628906 172.54825195 426.14160156 172.92700195 C428.64537075 174.35772721 429.80982544 175.74616016 431.32910156 178.17700195 C431.32910156 178.83700195 431.32910156 179.49700195 431.32910156 180.17700195 C432.31910156 180.50700195 433.30910156 180.83700195 434.32910156 181.17700195 C435.69628906 182.64575195 435.69628906 182.64575195 437.20410156 184.67700195 C437.81253906 185.4865332 438.42097656 186.29606445 439.04785156 187.13012695 C439.80066406 188.1355957 440.55347656 189.14106445 441.32910156 190.17700195 C442.33755104 191.48581172 443.34812812 192.79298375 444.36035156 194.09887695 C463.32910156 218.61315884 463.32910156 218.61315884 463.32910156 222.17700195 C463.98910156 222.17700195 464.64910156 222.17700195 465.32910156 222.17700195 C466.80219267 224.27719209 468.14219792 226.35467924 469.45410156 228.55200195 C469.82664062 229.1552832 470.19917969 229.75856445 470.58300781 230.38012695 C473.32910156 234.90665511 473.32910156 234.90665511 473.32910156 237.17700195 C473.98910156 237.17700195 474.64910156 237.17700195 475.32910156 237.17700195 C475.65910156 238.49700195 475.98910156 239.81700195 476.32910156 241.17700195 C472.33028368 240.5617992 469.5255193 238.57431526 466.32910156 236.17700195 C466.32910156 235.51700195 466.32910156 234.85700195 466.32910156 234.17700195 C465.60722656 233.92950195 464.88535156 233.68200195 464.14160156 233.42700195 C461.04235979 232.04956116 458.95765373 230.31652116 456.32910156 228.17700195 C454.20604295 226.85801218 452.06499008 225.58008697 449.90332031 224.32543945 C449.38382813 223.94645508 448.86433594 223.5674707 448.32910156 223.17700195 C448.32910156 222.51700195 448.32910156 221.85700195 448.32910156 221.17700195 C447.61987549 220.91669189 446.91064941 220.65638184 446.17993164 220.38818359 C443.14457339 219.09860474 440.50965382 217.54942256 437.71582031 215.7980957 C436.64066162 215.1285083 435.56550293 214.4589209 434.45776367 213.76904297 C433.89588348 213.41705841 433.3340033 213.06507385 432.75509644 212.7024231 C422.43358929 206.24339579 412.04489111 199.96386041 401.32910156 194.17700195 C400.30429688 193.61940186 400.30429688 193.61940186 399.25878906 193.05053711 C386.30308983 186.01618132 373.25951908 179.52240473 359.43457031 174.3527832 C356.41226043 173.20848726 353.43290038 171.99226781 350.45410156 170.73950195 C339.87708163 166.30802325 329.41076519 161.95777576 318.37695312 158.77368164 C315.9682663 158.07186588 313.56700393 157.34679899 311.16503906 156.62231445 C288.63121912 149.87344207 266.05441459 144.0104348 242.77001953 140.54272461 C240.70507246 140.23333366 238.64357353 139.90106045 236.58300781 139.5637207 C230.57960597 138.58189094 224.55877795 137.81014303 218.51660156 137.11450195 C217.50460693 136.99534424 217.50460693 136.99534424 216.47216797 136.8737793 C200.82474739 135.14568705 185.2284668 135.01928857 169.50244141 135.04663086 C165.83654648 135.05199107 162.17077403 135.04665696 158.50488281 135.0402832 C140.26065537 135.03285934 122.46558072 135.92782877 104.39160156 138.42700195 C103.58551453 138.53748871 102.77942749 138.64797546 101.94891357 138.7618103 C65.43070007 143.7980763 28.52118722 152.16009977 -5.67089844 166.17700195 C-6.960359 166.68840186 -8.25065389 167.19770596 -9.54199219 167.7043457 C-16.14053392 170.31340766 -22.67539207 173.00121293 -29.10839844 176.0012207 C-31.0553986 176.89458511 -33.02138183 177.74671234 -34.99511719 178.5793457 C-38.90605827 180.2461742 -42.69170576 182.13202959 -46.48339844 184.05200195 C-47.88961648 184.76039873 -49.29586646 185.46873211 -50.70214844 186.17700195 C-51.37890625 186.51860352 -52.05566406 186.86020508 -52.75292969 187.2121582 C-56.07650954 188.88410163 -59.41501585 190.52608557 -62.75292969 192.16918945 C-64.90239833 193.25621833 -64.90239833 193.25621833 -67.67089844 195.17700195 C-68.66089844 195.17700195 -69.65089844 195.17700195 -70.67089844 195.17700195 C-70.67089844 195.83700195 -70.67089844 196.49700195 -70.67089844 197.17700195 C-71.43015625 197.58692383 -72.18941406 197.9968457 -72.97167969 198.41918945 C-73.96554687 198.95801758 -74.95941406 199.4968457 -75.98339844 200.05200195 C-76.96953125 200.58567383 -77.95566406 201.1193457 -78.97167969 201.66918945 C-81.76676301 203.18422322 -81.76676301 203.18422322 -84.67089844 205.17700195 C-85.66089844 205.17700195 -86.65089844 205.17700195 -87.67089844 205.17700195 C-87.67089844 205.83700195 -87.67089844 206.49700195 -87.67089844 207.17700195 C-88.66089844 207.73387695 -89.65089844 208.29075195 -90.67089844 208.86450195 C-94.186761 210.86231388 -97.58517725 213.01499913 -100.97167969 215.22387695 C-102.67089844 216.17700195 -102.67089844 216.17700195 -104.67089844 216.17700195 C-104.67089844 216.83700195 -104.67089844 217.49700195 -104.67089844 218.17700195 C-106.28808594 219.4387207 -106.28808594 219.4387207 -108.54589844 220.86450195 C-112.07205526 223.1372855 -115.54849958 225.45547927 -118.98339844 227.86450195 C-119.78390625 228.42524414 -120.58441406 228.98598633 -121.40917969 229.5637207 C-122.91147323 230.63530487 -124.38904326 231.74246013 -125.83886719 232.8840332 C-127.67089844 234.17700195 -127.67089844 234.17700195 -129.67089844 234.17700195 C-129.67089844 234.83700195 -129.67089844 235.49700195 -129.67089844 236.17700195 C-133.1324369 239.17700195 -133.1324369 239.17700195 -135.67089844 239.17700195 C-135.67089844 239.83700195 -135.67089844 240.49700195 -135.67089844 241.17700195 C-136.99089844 241.50700195 -138.31089844 241.83700195 -139.67089844 242.17700195 C-139.67089844 242.83700195 -139.67089844 243.49700195 -139.67089844 244.17700195 C-143.1324369 247.17700195 -143.1324369 247.17700195 -145.67089844 247.17700195 C-145.67089844 247.83700195 -145.67089844 248.49700195 -145.67089844 249.17700195 C-147.36364128 250.74132982 -149.12659696 252.23028767 -150.92089844 253.67700195 C-151.89542969 254.47106445 -152.86996094 255.26512695 -153.87402344 256.08325195 C-156.67089844 258.17700195 -156.67089844 258.17700195 -158.90527344 259.20825195 C-161.21423068 260.47511345 -161.54544573 261.83086592 -162.67089844 264.17700195 C-164.56152344 266.04418945 -164.56152344 266.04418945 -166.92089844 268.05200195 C-171.47637335 272.04884928 -175.8214957 276.20594313 -180.10839844 280.48950195 C-180.71135742 281.08811035 -181.31431641 281.68671875 -181.93554688 282.3034668 C-184.28304479 284.65824686 -186.47795128 286.91565778 -188.45605469 289.5949707 C-188.85695312 290.11704102 -189.25785156 290.63911133 -189.67089844 291.17700195 C-190.33089844 291.17700195 -190.99089844 291.17700195 -191.67089844 291.17700195 C-192.00089844 292.16700195 -192.33089844 293.15700195 -192.67089844 294.17700195 C-193.33089844 294.17700195 -193.99089844 294.17700195 -194.67089844 294.17700195 C-194.89132813 294.70938477 -195.11175781 295.24176758 -195.33886719 295.7902832 C-197.13880832 299.01539766 -199.54322432 301.61847919 -201.98339844 304.36450195 C-208.94156916 312.34197529 -215.33739102 320.69993739 -221.67089844 329.17700195 C-222.15977539 329.82846191 -222.64865234 330.47992188 -223.15234375 331.15112305 C-236.26885309 348.66215478 -247.9806676 366.98863358 -258.54321289 386.15405273 C-260.00723113 388.78034742 -261.55658759 391.35181465 -263.10839844 393.92700195 C-266.75159788 400.16126996 -269.75496462 406.57703468 -272.67089844 413.17700195 C-273.32935421 414.65634601 -273.98823166 416.13550243 -274.64746094 417.61450195 C-276.03494237 420.72964262 -277.41673388 423.84723429 -278.79589844 426.96606445 C-280.23861842 430.22080625 -281.72511173 433.45204683 -283.23339844 436.67700195 C-293.13919607 458.50277608 -300.26091745 481.47880416 -306.04345703 504.69702148 C-306.88893042 508.03877973 -307.81214408 511.3553478 -308.73339844 514.67700195 C-313.59604817 532.95733664 -316.89414082 551.47955842 -319.67089844 570.17700195 C-319.81269531 571.11882324 -319.95449219 572.06064453 -320.10058594 573.03100586 C-321.78238257 584.23835583 -323.32931495 595.45634133 -324.42822266 606.73706055 C-324.59230399 608.38678779 -324.7660725 610.03557574 -324.94873047 611.68334961 C-329.77945302 655.8464527 -327.66441833 701.52648462 -319.67089844 745.17700195 C-319.33624918 747.0676245 -319.00161362 748.95824948 -318.66699219 750.84887695 C-316.81526593 761.11011041 -314.60380748 771.16532649 -311.67089844 781.17700195 C-311.33421143 782.33498291 -311.33421143 782.33498291 -310.99072266 783.51635742 C-306.78120677 797.93570916 -302.43784201 812.2928878 -296.67089844 826.17700195 C-296.19136719 827.38227539 -295.71183594 828.58754883 -295.21777344 829.8293457 C-289.05227412 845.2449455 -282.0709515 860.34557238 -273.85058594 874.77856445 C-272.67089844 877.17700195 -272.67089844 877.17700195 -272.67089844 880.17700195 C-272.01089844 880.17700195 -271.35089844 880.17700195 -270.67089844 880.17700195 C-270.17589844 881.22887695 -269.68089844 882.28075195 -269.17089844 883.36450195 C-266.57377984 888.60578839 -263.41443757 893.48917216 -260.28027344 898.41918945 C-258.67089844 901.17700195 -258.67089844 901.17700195 -258.67089844 903.17700195 C-261.63264967 902.56422584 -263.05148626 901.92327674 -265.67089844 900.17700195 C-265.67089844 899.51700195 -265.67089844 898.85700195 -265.67089844 898.17700195 C-266.21746094 897.93852539 -266.76402344 897.70004883 -267.32714844 897.4543457 C-270.25251991 895.86001825 -272.61628177 893.87653705 -275.17089844 891.73950195 C-279.01217233 888.523619 -279.01217233 888.523619 -283.01464844 885.5168457 C-283.83449219 884.85362305 -283.83449219 884.85362305 -284.67089844 884.17700195 C-284.67089844 883.51700195 -284.67089844 882.85700195 -284.67089844 882.17700195 C-285.66089844 881.84700195 -286.65089844 881.51700195 -287.67089844 881.17700195 C-287.67089844 880.51700195 -287.67089844 879.85700195 -287.67089844 879.17700195 C-288.26386719 878.91274414 -288.85683594 878.64848633 -289.46777344 878.3762207 C-291.75118898 877.1332977 -293.14516567 875.87298549 -294.92089844 873.98950195 C-297.26493639 871.56650693 -299.63854531 869.32734062 -302.23339844 867.17700195 C-306.49367955 863.50725486 -310.32249477 859.45581528 -314.17089844 855.36450195 C-314.80713135 854.69354492 -315.44336426 854.02258789 -316.09887695 853.33129883 C-316.68983154 852.69643555 -317.28078613 852.06157227 -317.88964844 851.4074707 C-318.42525391 850.83407959 -318.96085937 850.26068848 -319.51269531 849.66992188 C-320.67089844 848.17700195 -320.67089844 848.17700195 -320.67089844 846.17700195 C-321.66089844 845.84700195 -322.65089844 845.51700195 -323.67089844 845.17700195 C-323.67089844 844.51700195 -323.67089844 843.85700195 -323.67089844 843.17700195 C-324.33089844 843.17700195 -324.99089844 843.17700195 -325.67089844 843.17700195 C-327.17215935 841.54596603 -328.5977423 839.8448255 -329.98339844 838.11450195 C-330.78777344 837.11161133 -331.59214844 836.1087207 -332.42089844 835.07543945 C-334.16613183 832.8272395 -335.85410499 830.57142821 -337.48339844 828.23950195 C-339.49279953 825.24892651 -339.49279953 825.24892651 -341.60839844 823.23950195 C-344.65743475 820.19046564 -347.3216994 816.79476846 -349.67089844 813.17700195 C-349.67089844 812.51700195 -349.67089844 811.85700195 -349.67089844 811.17700195 C-350.33089844 811.17700195 -350.99089844 811.17700195 -351.67089844 811.17700195 C-354.67089844 806.79238657 -354.67089844 806.79238657 -354.67089844 804.17700195 C-355.33089844 804.17700195 -355.99089844 804.17700195 -356.67089844 804.17700195 C-358.25683594 801.98168945 -358.25683594 801.98168945 -360.04589844 799.05200195 C-362.01250923 795.86190469 -363.96797623 792.69087939 -366.10839844 789.61450195 C-367.67089844 787.17700195 -367.67089844 787.17700195 -367.67089844 785.17700195 C-368.33089844 785.17700195 -368.99089844 785.17700195 -369.67089844 785.17700195 C-370.00089844 783.52700195 -370.33089844 781.87700195 -370.67089844 780.17700195 C-371.33089844 780.17700195 -371.99089844 780.17700195 -372.67089844 780.17700195 C-374.71259329 777.27151313 -375.67089844 775.7755815 -375.67089844 772.17700195 C-376.33089844 772.17700195 -376.99089844 772.17700195 -377.67089844 772.17700195 C-378.18652344 771.10450195 -378.70214844 770.03200195 -379.23339844 768.92700195 C-380.95482606 765.46608977 -382.85844323 762.17140463 -384.85839844 758.86450195 C-388.89442705 752.03096854 -392.20128237 744.89924787 -395.54589844 737.70825195 C-397.19938364 734.15588799 -398.93408573 730.65828089 -400.73339844 727.17700195 C-409.94791873 708.84949878 -417.58262777 689.089332 -422.78417969 669.24731445 C-423.46689184 666.88338604 -424.22688942 664.70010633 -425.12402344 662.41918945 C-426.90323673 657.76926163 -428.00975954 653.02559601 -429.10839844 648.17700195 C-429.54358724 646.29265403 -429.97979265 644.40854062 -430.41699219 642.5246582 C-430.62952637 641.60700684 -430.84206055 640.68935547 -431.06103516 639.74389648 C-431.57886086 637.56438508 -432.12589765 635.39913345 -432.70605469 633.2355957 C-434.9477009 624.82261579 -436.66523337 616.3639242 -438.23339844 607.80200195 C-438.43126953 606.74682373 -438.62914062 605.69164551 -438.83300781 604.60449219 C-442.55208677 583.70308432 -444.13592325 562.91807436 -444.06933594 541.70825195 C-444.07136733 539.36389069 -444.07428749 537.01953005 -444.07803345 534.6751709 C-444.08240684 529.80804309 -444.07618936 524.94108264 -444.06201172 520.07397461 C-444.04492323 513.91611648 -444.05479162 507.75865101 -444.07272911 501.60080719 C-444.08370355 496.77359191 -444.08005894 491.94646578 -444.07234573 487.11924744 C-444.07038119 484.85204519 -444.07266664 482.58483414 -444.07978439 480.31764221 C-444.11961724 464.07600441 -442.85536313 448.26830466 -440.67089844 432.17700195 C-440.54626095 431.24796555 -440.42162346 430.31892914 -440.29320908 429.36174011 C-434.29525883 384.9741519 -422.19870544 341.89483376 -405.92089844 300.23950195 C-405.46102539 299.06033203 -405.00115234 297.88116211 -404.52734375 296.66625977 C-402.42879163 291.35797753 -400.27969247 286.15125558 -397.64941406 281.08398438 C-396.55108187 278.94349716 -395.53375338 276.77398171 -394.52246094 274.59106445 C-387.50260237 259.47629007 -387.50260237 259.47629007 -383.15258789 252.65161133 C-381.59742408 250.05429045 -380.29145419 247.41059202 -378.98339844 244.6809082 C-375.68722321 238.02812872 -371.84966578 231.80563645 -367.85839844 225.55200195 C-366.51793206 223.4352086 -365.17805653 221.31804095 -363.83886719 219.20043945 C-363.25387451 218.28182129 -362.66888184 217.36320313 -362.06616211 216.41674805 C-360.67052855 214.25404931 -360.67052855 214.25404931 -359.67089844 212.17700195 C-359.01089844 212.17700195 -358.35089844 212.17700195 -357.67089844 212.17700195 C-357.41308594 211.47188477 -357.15527344 210.76676758 -356.88964844 210.0402832 C-355.56759658 206.9343088 -353.9734199 204.2172213 -352.17089844 201.36450195 C-351.25824219 199.90077148 -351.25824219 199.90077148 -350.32714844 198.4074707 C-349.78058594 197.67141602 -349.23402344 196.93536133 -348.67089844 196.17700195 C-348.01089844 196.17700195 -347.35089844 196.17700195 -346.67089844 196.17700195 C-346.46464844 195.51700195 -346.25839844 194.85700195 -346.04589844 194.17700195 C-344.17965592 190.10520009 -341.69528317 186.48903197 -338.67089844 183.17700195 C-338.01089844 183.17700195 -337.35089844 183.17700195 -336.67089844 183.17700195 C-336.40277344 182.37262695 -336.13464844 181.56825195 -335.85839844 180.73950195 C-335.46652344 179.89387695 -335.07464844 179.04825195 -334.67089844 178.17700195 C-333.68089844 177.84700195 -332.69089844 177.51700195 -331.67089844 177.17700195 C-330.93766048 175.16191837 -330.93766048 175.16191837 -330.67089844 173.17700195 C-330.01089844 173.17700195 -329.35089844 173.17700195 -328.67089844 173.17700195 C-328.36152344 172.55825195 -328.05214844 171.93950195 -327.73339844 171.30200195 C-327.04589844 169.92700195 -326.35839844 168.55200195 -325.67089844 167.17700195 C-325.01089844 167.17700195 -324.35089844 167.17700195 -323.67089844 167.17700195 C-323.43242187 166.63172852 -323.19394531 166.08645508 -322.94824219 165.5246582 C-321.34926492 162.58586512 -319.36734357 160.18995298 -317.23339844 157.61450195 C-316.05970703 156.18944336 -316.05970703 156.18944336 -314.86230469 154.7355957 C-311.33720908 150.61984236 -311.33720908 150.61984236 -309.67089844 149.17700195 C-309.01089844 149.17700195 -308.35089844 149.17700195 -307.67089844 149.17700195 C-307.67089844 148.51700195 -307.67089844 147.85700195 -307.67089844 147.17700195 C-306.29589844 145.55200195 -306.29589844 145.55200195 -304.67089844 144.17700195 C-304.01089844 144.17700195 -303.35089844 144.17700195 -302.67089844 144.17700195 C-302.67089844 143.51700195 -302.67089844 142.85700195 -302.67089844 142.17700195 C-302.01089844 142.17700195 -301.35089844 142.17700195 -300.67089844 142.17700195 C-300.46464844 141.62012695 -300.25839844 141.06325195 -300.04589844 140.48950195 C-298.70243091 138.23003384 -297.61932142 137.17713635 -295.60839844 135.55200195 C-292.66265131 133.50580799 -292.66265131 133.50580799 -291.67089844 131.17700195 C-291.01089844 131.17700195 -290.35089844 131.17700195 -289.67089844 131.17700195 C-289.67089844 130.51700195 -289.67089844 129.85700195 -289.67089844 129.17700195 C-288.30761719 127.80200195 -288.30761719 127.80200195 -286.35839844 126.17700195 C-281.77066216 122.29507125 -277.38075801 118.22061724 -272.99121094 114.1184082 C-270.67089844 112.17700195 -270.67089844 112.17700195 -268.67089844 112.17700195 C-268.67089844 111.51700195 -268.67089844 110.85700195 -268.67089844 110.17700195 C-266.91308594 108.59106445 -266.91308594 108.59106445 -264.54589844 106.80200195 C-263.72476563 106.17938477 -262.90363281 105.55676758 -262.05761719 104.9152832 C-260.19293117 103.55720583 -258.28335982 102.26070287 -256.35839844 100.98950195 C-253.62593962 99.28031709 -253.62593962 99.28031709 -251.54589844 96.98950195 C-249.5479932 95.05819355 -248.38137613 94.56421305 -245.67089844 94.17700195 C-245.67089844 93.51700195 -245.67089844 92.85700195 -245.67089844 92.17700195 C-243.77246094 90.66918945 -243.77246094 90.66918945 -241.29589844 89.05200195 C-240.48378906 88.51317383 -239.67167969 87.9743457 -238.83496094 87.41918945 C-236.67089844 86.17700195 -236.67089844 86.17700195 -234.67089844 86.17700195 C-234.67089844 85.51700195 -234.67089844 84.85700195 -234.67089844 84.17700195 C-232.99121094 82.88793945 -232.99121094 82.88793945 -230.79589844 81.55200195 C-230.07660156 81.10598633 -229.35730469 80.6599707 -228.61621094 80.20043945 C-226.67089844 79.17700195 -226.67089844 79.17700195 -224.67089844 79.17700195 C-224.67089844 78.51700195 -224.67089844 77.85700195 -224.67089844 77.17700195 C-222.96191406 75.92773437 -222.96191406 75.92773437 -220.57714844 74.5324707 C-219.71089844 74.02006836 -218.84464844 73.50766602 -217.95214844 72.97973633 C-217.03433594 72.44670898 -216.11652344 71.91368164 -215.17089844 71.36450195 C-213.3892481 70.3170055 -211.60799331 69.26883595 -209.82714844 68.2199707 C-208.95461426 67.70877686 -208.08208008 67.19758301 -207.18310547 66.67089844 C-204.89080804 65.3077723 -202.6328302 63.9038228 -200.38183594 62.47387695 C-197.27386931 60.51510415 -194.11389881 58.82497304 -190.79589844 57.23950195 C-186.98487898 55.37453499 -183.33444945 53.41960771 -179.73339844 51.17700195 C-173.94717188 47.63740853 -167.86114503 44.92970022 -161.67089844 42.17700195 C-160.36431714 41.57672573 -159.05835029 40.97511068 -157.75292969 40.37231445 C-118.11166753 22.21169885 -76.5738091 10.4311856 -33.67089844 3.17700195 C-32.1655957 2.90968262 -32.1655957 2.90968262 -30.62988281 2.63696289 C-29.62763672 2.46197266 -28.62539063 2.28698242 -27.59277344 2.10668945 C-26.71717773 1.95184082 -25.84158203 1.79699219 -24.93945312 1.63745117 C-16.63750511 0.46793564 -8.37721487 0.02444098 0 0 Z " fill="#364345" transform="translate(443.6708984375,-0.177001953125)"/>
<path d="M0 0 C3.03050154 0.59855102 5.0026945 1.50585705 7.4609375 3.36328125 C8.09773437 3.83830078 8.73453125 4.31332031 9.390625 4.80273438 C10.04546875 5.30095703 10.7003125 5.79917969 11.375 6.3125 C12.67354904 7.28899853 13.9730168 8.26427663 15.2734375 9.23828125 C15.89702148 9.70830566 16.52060547 10.17833008 17.16308594 10.66259766 C18.8966346 11.92474274 20.66553607 13.08355624 22.4765625 14.23046875 C23.72566406 15.10638672 23.72566406 15.10638672 25 16 C25 16.66 25 17.32 25 18 C25.928125 18.4640625 25.928125 18.4640625 26.875 18.9375 C28.25 19.625 29.625 20.3125 31 21 C31 21.66 31 22.32 31 23 C31.56203125 23.2578125 32.1240625 23.515625 32.703125 23.78125 C35.26704579 25.14169777 37.45226365 26.72788962 39.75 28.5 C40.54921875 29.1084375 41.3484375 29.716875 42.171875 30.34375 C42.77515625 30.8903125 43.3784375 31.436875 44 32 C44 32.66 44 33.32 44 34 C44.66 34 45.32 34 46 34 C46 34.66 46 35.32 46 36 C46.55171875 36.2371875 47.1034375 36.474375 47.671875 36.71875 C50.56774711 38.31245143 52.79512037 40.28917273 55.25 42.5 C56.14203125 43.2940625 57.0340625 44.088125 57.953125 44.90625 C60 47 60 47 60 49 C60.9590625 49.4021875 60.9590625 49.4021875 61.9375 49.8125 C64 51 64 51 65 54 C66.31837094 54.69578752 67.654095 55.35909286 69 56 C70.73925781 57.57226563 70.73925781 57.57226563 72.453125 59.40625 C73.071875 60.06753906 73.690625 60.72882813 74.328125 61.41015625 C74.96234375 62.09980469 75.5965625 62.78945313 76.25 63.5 C76.8996875 64.18964844 77.549375 64.87929688 78.21875 65.58984375 C83 70.74274554 83 70.74274554 83 73 C83.66 73 84.32 73 85 73 C86.43812673 74.56940801 87.8003005 76.20874035 89.125 77.875 C89.92292969 78.8753125 90.72085938 79.875625 91.54296875 80.90625 C92.35378906 81.9271875 93.16460938 82.948125 94 84 C95.13888672 85.37671875 95.13888672 85.37671875 96.30078125 86.78125 C97.00589844 87.6371875 97.71101562 88.493125 98.4375 89.375 C99.07558594 90.14585937 99.71367188 90.91671875 100.37109375 91.7109375 C102.04605866 94.06472512 103.04481904 96.28325414 104 99 C104.66 99 105.32 99 106 99 C107.23681641 100.43701172 107.23681641 100.43701172 108.6015625 102.4296875 C109.09140625 103.14253906 109.58125 103.85539062 110.0859375 104.58984375 C110.59382812 105.34394531 111.10171875 106.09804688 111.625 106.875 C112.140625 107.62136719 112.65625 108.36773437 113.1875 109.13671875 C117 114.734437 117 114.734437 117 117 C117.66 117 118.32 117 119 117 C120.551166 119.15905538 121.97664144 121.30730408 123.375 123.5625 C123.76171875 124.17158203 124.1484375 124.78066406 124.546875 125.40820312 C132 137.22565803 132 137.22565803 132 140 C132.66 140 133.32 140 134 140 C136.00961837 143.66146378 138.00506644 147.33051836 140 151 C140.59167969 152.07636719 141.18335938 153.15273438 141.79296875 154.26171875 C147.96634155 165.62836186 153.52680838 177.28248334 159 189 C159.42063721 189.89895996 159.84127441 190.79791992 160.2746582 191.72412109 C176.75854244 227.42052166 187.97678244 266.34153837 195 305 C195.1532373 305.83241211 195.30647461 306.66482422 195.46435547 307.52246094 C197.62658502 319.40734022 199.38034136 331.30256946 200.6875 343.3125 C200.86635742 344.9361145 200.86635742 344.9361145 201.04882812 346.5925293 C202.97074062 365.19647556 203.162169 383.76150023 203.13037109 402.45166016 C203.12467427 405.82305894 203.12806759 409.19437882 203.13380337 412.56577492 C203.16205173 432.02642791 202.65472777 451.25844018 200.6875 470.625 C200.55923828 471.89553223 200.43097656 473.16606445 200.29882812 474.47509766 C199.00851434 486.73460738 197.13939234 498.86315003 195 511 C194.8148584 512.0828125 194.8148584 512.0828125 194.62597656 513.1875 C189.38172794 543.83215284 181.16017694 573.64899904 171 603 C170.74976074 603.72848145 170.49952148 604.45696289 170.24169922 605.20751953 C167.8313537 612.20768669 165.20895345 619.07702685 162.3046875 625.88671875 C161.12754532 628.69564785 160.01714059 631.52393974 158.92041016 634.36499023 C153.91470582 647.23942167 147.42357518 659.35732588 140.8815918 671.50537109 C139.37691934 674.31235079 138.0093135 676.97205949 137 680 C136.34 680 135.68 680 135 680 C134.89300781 680.73605469 134.78601563 681.47210937 134.67578125 682.23046875 C133.9540238 685.18842269 132.95868843 686.85974033 131.1875 689.3125 C128.3442297 693.39584723 126.12518374 697.50441901 124 702 C123.34 702 122.68 702 122 702 C121.67 703.65 121.34 705.3 121 707 C120.34 707 119.68 707 119 707 C118.73316406 707.721875 118.46632813 708.44375 118.19140625 709.1875 C116.08576601 714.1581917 112.97370694 718.51149121 110 723 C109.61263672 723.58571777 109.22527344 724.17143555 108.82617188 724.77490234 C107.62260071 726.58557181 106.40736347 728.38777447 105.1875 730.1875 C104.80263428 730.76435547 104.41776855 731.34121094 104.02124023 731.93554688 C103.06594979 733.32736636 102.03874581 734.66930527 101 736 C100.34 736 99.68 736 99 736 C98.64421875 737.04220703 98.64421875 737.04220703 98.28125 738.10546875 C96.7689473 741.52198185 94.74761633 744.35756671 92.5 747.3125 C92.09652344 747.86228516 91.69304688 748.41207031 91.27734375 748.97851562 C90.23731309 750.36007451 89.12366546 751.68556298 88 753 C87.34 753 86.68 753 86 753 C85.76152344 753.5465625 85.52304687 754.093125 85.27734375 754.65625 C83.6830163 757.58162147 81.6995351 759.94538333 79.5625 762.5 C76.34661704 766.34127389 76.34661704 766.34127389 73.33984375 770.34375 C72.89769531 770.8903125 72.45554687 771.436875 72 772 C71.34 772 70.68 772 70 772 C69.60361328 772.88945313 69.60361328 772.88945313 69.19921875 773.796875 C67.95629575 776.08029054 66.69598354 777.47426723 64.8125 779.25 C62.34617783 781.64051309 60.03410171 784.06840583 57.8125 786.6875 C39.16086066 808.27971311 39.16086066 808.27971311 31 811 C30.67 811.99 30.34 812.98 30 814 C28.34731229 815.50114368 26.62793314 816.92973667 24.875 818.3125 C21.49771441 821.00027475 18.16501846 823.69662737 14.9375 826.5625 C12 829 12 829 10 829 C10 829.66 10 830.32 10 831 C8.61748642 831.97787546 7.22608829 832.94557388 5.79296875 833.84765625 C3.88375325 835.07471197 2.07403748 836.40013578 0.25 837.75 C-3 840 -3 840 -5 840 C-5 840.66 -5 841.32 -5 842 C-7.19297523 843.70289024 -9.3854131 845.2677967 -11.6875 846.8125 C-12.39285889 847.29170898 -13.09821777 847.77091797 -13.82495117 848.26464844 C-21.48492292 853.41596083 -29.34471817 858.24371505 -37.21875 863.05859375 C-40.79460431 865.2465247 -44.31531042 867.50035207 -47.8125 869.8125 C-54.56636969 874.12776682 -61.78333439 877.5390265 -69 881 C-69.78036621 881.37447266 -70.56073242 881.74894531 -71.36474609 882.13476562 C-76.18957643 884.44385394 -81.02599143 886.72724251 -85.86962891 888.99658203 C-87.70349871 889.86034606 -89.53021161 890.73927569 -91.35546875 891.62109375 C-107.30321434 899.23392444 -124.06976218 905.00710052 -141 910 C-141.95390625 910.28230469 -142.9078125 910.56460938 -143.890625 910.85546875 C-171.11789764 918.84911674 -199.48642524 926.12454054 -228.04174805 926.16113281 C-228.99137421 926.16609772 -229.94100037 926.17106262 -230.91940308 926.17617798 C-234.03351597 926.19067224 -237.14757779 926.19758331 -240.26171875 926.203125 C-241.33812937 926.20595238 -242.41453999 926.20877975 -243.52356911 926.21169281 C-249.22998927 926.22664032 -254.93638448 926.23589547 -260.64282227 926.24023438 C-266.46958721 926.24568561 -272.29611455 926.26965535 -278.1228056 926.29820633 C-282.6608186 926.31705337 -287.19877715 926.32205006 -291.73682594 926.32357025 C-293.88092141 926.32655228 -296.025017 926.33442505 -298.1690731 926.34775543 C-318.31859596 926.46400347 -337.78181644 924.16832207 -357.5 920.0625 C-358.78116699 919.80017578 -360.06233398 919.53785156 -361.38232422 919.26757812 C-370.02053955 917.47405503 -378.54251617 915.52338042 -387 913 C-388.17828369 912.65171143 -388.17828369 912.65171143 -389.38037109 912.29638672 C-394.44658471 910.79792917 -399.50598827 909.27822154 -404.55981445 907.73852539 C-406.25971484 907.22404829 -407.96153785 906.71589926 -409.66479492 906.21264648 C-410.97540894 905.82508179 -410.97540894 905.82508179 -412.3125 905.4296875 C-413.09882813 905.19878418 -413.88515625 904.96788086 -414.6953125 904.72998047 C-417.92528364 903.70692817 -421.0406445 902.45397192 -424.171875 901.1640625 C-426.93347921 900.02738011 -429.70864461 898.92854769 -432.48706055 897.83374023 C-439.42401972 895.09073685 -446.24490521 892.16534547 -453 889 C-454.28628302 888.4084728 -455.57275538 887.81735722 -456.859375 887.2265625 C-478.27134129 877.34181587 -498.40560493 865.59899949 -518.25 852.875 C-519.1263208 852.31844727 -520.0026416 851.76189453 -520.90551758 851.18847656 C-521.70497803 850.66995117 -522.50443848 850.15142578 -523.328125 849.6171875 C-524.0387207 849.15940918 -524.74931641 848.70163086 -525.48144531 848.22998047 C-525.98256836 847.82408691 -526.48369141 847.41819336 -527 847 C-527 846.34 -527 845.68 -527 845 C-527.70898438 844.75507812 -528.41796875 844.51015625 -529.1484375 844.2578125 C-532.38472906 842.83029759 -534.82810061 841.03863915 -537.625 838.875 C-538.66398437 838.07707031 -539.70296875 837.27914062 -540.7734375 836.45703125 C-541.56959473 835.84529053 -541.56959473 835.84529053 -542.38183594 835.22119141 C-545.85815919 832.59768976 -549.44665818 830.12415848 -553.015625 827.62890625 C-553.67046875 827.09136719 -554.3253125 826.55382813 -555 826 C-555 825.34 -555 824.68 -555 824 C-555.56460938 823.75507812 -556.12921875 823.51015625 -556.7109375 823.2578125 C-559.41292072 821.773105 -561.37295 819.98033665 -563.625 817.875 C-567.96686348 813.87557516 -572.46897024 810.20439958 -577.1640625 806.62890625 C-577.76992188 806.09136719 -578.37578125 805.55382813 -579 805 C-579 804.34 -579 803.68 -579 803 C-579.66 803 -580.32 803 -581 803 C-581 802.34 -581 801.68 -581 801 C-581.99 800.67 -582.98 800.34 -584 800 C-584 799.34 -584 798.68 -584 798 C-584.99 797.67 -585.98 797.34 -587 797 C-587 796.34 -587 795.68 -587 795 C-587.66 795 -588.32 795 -589 795 C-589 794.34 -589 793.68 -589 793 C-589.99 792.67 -590.98 792.34 -592 792 C-592 791.34 -592 790.68 -592 790 C-592.66 790 -593.32 790 -594 790 C-594 789.34 -594 788.68 -594 788 C-594.99 787.67 -595.98 787.34 -597 787 C-597 786.34 -597 785.68 -597 785 C-597.99 784.67 -598.98 784.34 -600 784 C-600 783.34 -600 782.68 -600 782 C-600.66 782 -601.32 782 -602 782 C-602 781.34 -602 780.68 -602 780 C-602.66 780 -603.32 780 -604 780 C-605.5078125 778.5390625 -605.5078125 778.5390625 -607.125 776.625 C-607.93324219 775.68527344 -607.93324219 775.68527344 -608.7578125 774.7265625 C-610 773 -610 773 -610 771 C-610.66 771 -611.32 771 -612 771 C-613.41706502 769.45111498 -614.75809496 767.83238466 -616.0625 766.1875 C-616.86042969 765.18976562 -617.65835938 764.19203125 -618.48046875 763.1640625 C-619.10187744 762.38144043 -619.10187744 762.38144043 -619.73583984 761.58300781 C-621.75535385 759.0541301 -623.81781174 756.56075481 -625.875 754.0625 C-633 745.39247312 -633 745.39247312 -633 743 C-633.66 743 -634.32 743 -635 743 C-639 737.58823529 -639 737.58823529 -639 735 C-639.66 735 -640.32 735 -641 735 C-644 730.61538462 -644 730.61538462 -644 728 C-644.66 728 -645.32 728 -646 728 C-646.66 726.35 -647.32 724.7 -648 723 C-643.00786149 723.46801299 -638.87036007 725.91715737 -635 729 C-635 729.66 -635 730.32 -635 731 C-634.31164062 731.24621094 -633.62328125 731.49242187 -632.9140625 731.74609375 C-629.51898776 733.20697712 -626.48070174 735.08066522 -623.375 737.0625 C-618.89227657 739.92816537 -618.89227657 739.92816537 -614 742 C-614 742.66 -614 743.32 -614 744 C-613.29875 744.0825 -612.5975 744.165 -611.875 744.25 C-609.0253092 744.9933976 -607.27849844 746.09259525 -604.90234375 747.7734375 C-601.53553613 749.94423338 -597.91029664 751.61163085 -594.31640625 753.37109375 C-592.1264248 754.44673835 -589.94633784 755.54279566 -587.77734375 756.66015625 C-578.82074482 761.25892459 -569.66942257 765.1988592 -560.36083984 769.02246094 C-558.12471905 769.94835832 -555.89916159 770.89554474 -553.67578125 771.8515625 C-543.3142546 776.27395949 -532.78478187 779.76138252 -522 783 C-520.61941406 783.42732422 -520.61941406 783.42732422 -519.2109375 783.86328125 C-516.81395514 784.60049747 -514.4090264 785.30311571 -512 786 C-510.76121094 786.36738281 -509.52242187 786.73476562 -508.24609375 787.11328125 C-489.82457847 792.47838104 -470.96262272 796.14210841 -452 799 C-450.80117188 799.18304687 -449.60234375 799.36609375 -448.3671875 799.5546875 C-445.27163313 799.99690955 -442.17550314 800.39750997 -439.06933594 800.75732422 C-437.66270866 800.92228263 -436.25709957 801.09611422 -434.85253906 801.27783203 C-405.57791908 804.97943674 -374.24076013 804.71384017 -345 801 C-343.14858266 800.79038055 -341.29701403 800.58209399 -339.4453125 800.375 C-318.30017728 797.91115711 -297.47768084 793.79843029 -277 788 C-275.23055578 787.50880096 -273.46102131 787.01792694 -271.69140625 786.52734375 C-245.43192816 779.19117566 -220.25145255 769.50703842 -196 757 C-194.08387873 756.06138579 -192.16721618 755.12387571 -190.25 754.1875 C-176.28554875 747.16852582 -162.96110674 739.24376308 -149.79589844 730.82641602 C-148.81137695 730.20049561 -147.82685547 729.5745752 -146.8125 728.9296875 C-145.93207031 728.36491699 -145.05164063 727.80014648 -144.14453125 727.21826172 C-142 726 -142 726 -140 726 C-140 725.34 -140 724.68 -140 724 C-138.68 723.67 -137.36 723.34 -136 723 C-136 722.34 -136 721.68 -136 721 C-131.61538462 718 -131.61538462 718 -129 718 C-129 717.34 -129 716.68 -129 716 C-126.98986381 714.43893679 -124.97578814 712.9927592 -122.875 711.5625 C-117.62267335 707.8996131 -112.47626249 704.13974967 -107.4375 700.1875 C-106.86692871 699.74414307 -106.29635742 699.30078613 -105.70849609 698.84399414 C-102.22854725 696.09989124 -99.09546571 693.16627702 -96 690 C-94.45131224 688.54762997 -92.88943443 687.10915056 -91.3125 685.6875 C-90.16201172 684.64142578 -90.16201172 684.64142578 -88.98828125 683.57421875 C-87 682 -87 682 -85 682 C-84.67 681.01 -84.34 680.02 -84 679 C-83.34 679 -82.68 679 -82 679 C-82 678.34 -82 677.68 -82 677 C-81.34 677 -80.68 677 -80 677 C-79.67 676.01 -79.34 675.02 -79 674 C-78.34 674 -77.68 674 -77 674 C-77 673.34 -77 672.68 -77 672 C-75.625 670.375 -75.625 670.375 -74 669 C-73.34 669 -72.68 669 -72 669 C-71.67 668.01 -71.34 667.02 -71 666 C-70.34 666 -69.68 666 -69 666 C-69 665.34 -69 664.68 -69 664 C-68.34 664 -67.68 664 -67 664 C-66.67 663.01 -66.34 662.02 -66 661 C-65.34 661 -64.68 661 -64 661 C-64 660.34 -64 659.68 -64 659 C-62.625 657.375 -62.625 657.375 -61 656 C-60.34 656 -59.68 656 -59 656 C-58.731875 655.41734375 -58.46375 654.8346875 -58.1875 654.234375 C-56.98519009 651.97213399 -55.66174087 650.19423682 -54 648.25 C-53.484375 647.63640625 -52.96875 647.0228125 -52.4375 646.390625 C-51 645 -51 645 -49 645 C-48.938125 644.443125 -48.87625 643.88625 -48.8125 643.3125 C-47.881026 640.66138168 -46.460206 639.43784784 -44.47729492 637.51391602 C-41.67366194 634.64078296 -39.23900088 631.45730381 -36.75 628.3125 C-36.20859375 627.63638672 -35.6671875 626.96027344 -35.109375 626.26367188 C-32.29032098 622.80432847 -32.29032098 622.80432847 -30 619 C-29.34 619 -28.68 619 -28 619 C-27.67 617.68 -27.34 616.36 -27 615 C-26.34 615 -25.68 615 -25 615 C-24.7525 614.484375 -24.505 613.96875 -24.25 613.4375 C-22.60418384 610.22815849 -20.8023904 607.12414336 -19 604 C-18.34 604 -17.68 604 -17 604 C-16.731875 603.278125 -16.46375 602.55625 -16.1875 601.8125 C-15.00098638 599.00233617 -13.72514361 596.51583443 -12 594 C-11.34 594 -10.68 594 -10 594 C-9.7834375 593.36578125 -9.566875 592.7315625 -9.34375 592.078125 C-7.44570609 587.73028024 -4.96960066 583.79410589 -2.5 579.75 C-1.41102887 577.94817615 -0.3224941 576.14608852 0.765625 574.34375 C1.31025391 573.44398438 1.85488281 572.54421875 2.41601562 571.6171875 C9.46660299 559.96763501 16.12841588 548.29216135 22 536 C22.33773437 535.29311035 22.67546875 534.5862207 23.0234375 533.85791016 C25.06582576 529.56870285 27.08315005 525.26827406 29.0859375 520.96044922 C29.92570353 519.15934847 30.77489947 517.36265233 31.625 515.56640625 C37.63408693 502.78144786 42.62271938 489.67331595 47.20263672 476.3203125 C47.74720718 474.73562245 48.29589625 473.15234328 48.84814453 471.5703125 C53.28220615 458.85487952 56.97309684 446.06006655 60.23193359 432.99584961 C61.10956155 429.57265422 62.05200653 426.16932324 62.98828125 422.76171875 C65.02771373 415.13446312 66.58756043 407.45502573 68 399.6875 C68.12662018 398.99990601 68.25324036 398.31231201 68.38369751 397.60388184 C71.7158186 379.49790937 74.61970487 361.36803483 76.625 343.0625 C76.73610107 342.05348633 76.84720215 341.04447266 76.96166992 340.00488281 C77.34177395 336.33933073 77.6775563 332.6709574 78 329 C78.08258057 328.08347656 78.16516113 327.16695312 78.25024414 326.22265625 C79.72592052 309.50806443 80.3176001 292.90636545 80.26074219 276.12890625 C80.24998463 272.36962853 80.26074058 268.61082631 80.2734375 264.8515625 C80.29685551 224.12896486 75.23586521 183.43217987 65 144 C64.71455322 142.8855249 64.71455322 142.8855249 64.42333984 141.74853516 C59.79304311 123.82853033 53.89973091 106.17117498 47 89 C46.52949219 87.77152344 46.05898438 86.54304688 45.57421875 85.27734375 C42.91560073 78.37774119 39.97807844 71.81960291 36.32421875 65.375 C32 57.61946903 32 57.61946903 32 53 C31.34 53 30.68 53 30 53 C29.58492187 52.11183594 29.16984375 51.22367187 28.7421875 50.30859375 C22.29978097 36.84545482 14.52156775 24.15616648 6.46240234 11.60546875 C5.77525146 10.53232422 5.77525146 10.53232422 5.07421875 9.4375 C4.67162842 8.81746094 4.26903809 8.19742187 3.85424805 7.55859375 C3 6 3 6 3 4 C2.34 4 1.68 4 1 4 C0.67 2.68 0.34 1.36 0 0 Z " fill="#1A788E" transform="translate(795,274)"/>
<path d="M0 0 C0.82586609 -0.0033284 1.65173218 -0.0066568 2.50262451 -0.01008606 C4.2405136 -0.01511864 5.97841223 -0.01749553 7.71630859 -0.01733398 C10.338383 -0.0195138 12.96003138 -0.03769056 15.58203125 -0.05664062 C24.63873231 -0.08739142 33.21636794 0.25686657 42.109375 2.16796875 C43.5661771 2.43225586 45.02319283 2.69536941 46.48046875 2.95703125 C63.23177951 6.28944481 78.91685768 12.07888734 93.2734375 21.3828125 C96.02556711 23.27212294 96.02556711 23.27212294 99.109375 24.16796875 C99.109375 24.82796875 99.109375 25.48796875 99.109375 26.16796875 C100.099375 26.47734375 100.099375 26.47734375 101.109375 26.79296875 C104.4644266 28.33070073 107.0696408 30.25566103 109.97265625 32.51171875 C112.80654209 34.70836883 115.72465532 36.7850539 118.640625 38.87109375 C119.1253125 39.2990625 119.61 39.72703125 120.109375 40.16796875 C120.109375 40.82796875 120.109375 41.48796875 120.109375 42.16796875 C120.769375 42.16796875 121.429375 42.16796875 122.109375 42.16796875 C123.546875 43.6640625 123.546875 43.6640625 125.109375 45.60546875 C127.25462544 48.31985113 127.25462544 48.31985113 130.109375 50.16796875 C130.109375 50.82796875 130.109375 51.48796875 130.109375 52.16796875 C131.099375 52.49796875 132.089375 52.82796875 133.109375 53.16796875 C133.109375 53.82796875 133.109375 54.48796875 133.109375 55.16796875 C133.769375 55.16796875 134.429375 55.16796875 135.109375 55.16796875 C136.55464236 56.90345044 137.9180972 58.70772838 139.234375 60.54296875 C139.95882813 61.54070312 140.68328125 62.5384375 141.4296875 63.56640625 C143.109375 66.16796875 143.109375 66.16796875 143.109375 68.16796875 C143.769375 68.16796875 144.429375 68.16796875 145.109375 68.16796875 C146.75158155 70.57792169 148.25964099 72.97111666 149.734375 75.48046875 C150.15460938 76.17076172 150.57484375 76.86105469 151.0078125 77.57226562 C154.109375 82.78349483 154.109375 82.78349483 154.109375 86.16796875 C154.769375 86.16796875 155.429375 86.16796875 156.109375 86.16796875 C157.86959621 90.23994715 159.61757415 94.31683995 161.35302734 98.39941406 C161.96664235 99.83421946 162.59277187 101.26366833 163.22265625 102.69140625 C178.90715183 139.48219835 178.61008912 185.10534971 163.859375 222.10546875 C162.96496159 224.13624934 162.04639773 226.15649329 161.109375 228.16796875 C160.83109863 228.76689941 160.55282227 229.36583008 160.26611328 229.98291016 C154.78069921 241.66871114 148.57595549 254.33581076 140.109375 264.16796875 C139.449375 264.16796875 138.789375 264.16796875 138.109375 264.16796875 C137.6453125 265.09609375 137.6453125 265.09609375 137.171875 266.04296875 C136.484375 267.41796875 135.796875 268.79296875 135.109375 270.16796875 C134.449375 270.16796875 133.789375 270.16796875 133.109375 270.16796875 C132.8721875 270.73 132.635 271.29203125 132.390625 271.87109375 C130.81989803 274.68690917 128.89466036 276.64752291 126.609375 278.91796875 C125.8153125 279.7171875 125.02125 280.51640625 124.203125 281.33984375 C122.109375 283.16796875 122.109375 283.16796875 120.109375 283.16796875 C119.86832031 283.75320313 119.62726563 284.3384375 119.37890625 284.94140625 C117.86578936 287.59518049 116.21968771 288.94430157 113.796875 290.79296875 C113.03761719 291.38335938 112.27835938 291.97375 111.49609375 292.58203125 C109.10049836 294.17386714 106.81083519 295.20213697 104.109375 296.16796875 C104.109375 296.82796875 104.109375 297.48796875 104.109375 298.16796875 C102.02734375 299.67578125 102.02734375 299.67578125 99.296875 301.29296875 C97.95689453 302.10121094 97.95689453 302.10121094 96.58984375 302.92578125 C94.109375 304.16796875 94.109375 304.16796875 91.109375 304.16796875 C91.109375 304.82796875 91.109375 305.48796875 91.109375 306.16796875 C65.60935413 318.88494807 39.91443855 326.63389786 11.171875 326.41796875 C10.51407043 326.41453461 9.85626587 326.41110046 9.17852783 326.40756226 C-30.2513239 326.16654557 -70.5586408 311.68395404 -99.72265625 284.53125 C-101.890625 282.16796875 -101.890625 282.16796875 -101.890625 280.16796875 C-102.46167969 279.93207031 -103.03273438 279.69617188 -103.62109375 279.453125 C-112.69463586 274.31509513 -120.48661954 262.03053771 -125.890625 253.16796875 C-125.890625 252.50796875 -125.890625 251.84796875 -125.890625 251.16796875 C-126.550625 251.16796875 -127.210625 251.16796875 -127.890625 251.16796875 C-128.40625 250.11609375 -128.921875 249.06421875 -129.453125 247.98046875 C-130.73646234 245.38658551 -132.06953811 242.8543293 -133.50390625 240.33984375 C-138.13553856 232.16516677 -141.36718083 223.92471986 -144.28393555 215.01464844 C-144.81453416 213.39957886 -145.37006167 211.79274252 -145.9296875 210.1875 C-147.12650306 206.42677469 -148.05434644 202.63413643 -148.953125 198.79296875 C-149.12650391 198.07625 -149.29988281 197.35953125 -149.47851562 196.62109375 C-149.64673828 195.90695312 -149.81496094 195.1928125 -149.98828125 194.45703125 C-150.13789307 193.82490723 -150.28750488 193.1927832 -150.44165039 192.54150391 C-151.62925247 186.2631638 -152.05536076 180.11418613 -152.09375 173.7421875 C-152.10076431 172.96105591 -152.10777863 172.17992432 -152.11500549 171.37512207 C-152.1324151 168.86851172 -152.13885736 166.36213734 -152.140625 163.85546875 C-152.14129974 163.00070953 -152.14197449 162.14595032 -152.14266968 161.26528931 C-152.12727993 149.02065802 -151.92173391 137.10059884 -148.890625 125.16796875 C-148.70838379 124.43932617 -148.52614258 123.71068359 -148.33837891 122.95996094 C-143.72427752 105.05092581 -136.13578838 85.06601959 -124.890625 70.16796875 C-124.230625 70.16796875 -123.570625 70.16796875 -122.890625 70.16796875 C-122.58125 69.38421875 -122.271875 68.60046875 -121.953125 67.79296875 C-120.890625 65.16796875 -120.890625 65.16796875 -119.890625 63.16796875 C-119.230625 63.16796875 -118.570625 63.16796875 -117.890625 63.16796875 C-117.6225 62.36359375 -117.354375 61.55921875 -117.078125 60.73046875 C-116.68625 59.88484375 -116.294375 59.03921875 -115.890625 58.16796875 C-114.900625 57.83796875 -113.910625 57.50796875 -112.890625 57.16796875 C-112.18723829 55.85363646 -111.52454053 54.51718086 -110.890625 53.16796875 C-109.41015625 51.42871094 -109.41015625 51.42871094 -107.703125 49.71484375 C-107.08695312 49.09609375 -106.47078125 48.47734375 -105.8359375 47.83984375 C-105.19398438 47.205625 -104.55203125 46.57140625 -103.890625 45.91796875 C-102.92769531 44.9434375 -102.92769531 44.9434375 -101.9453125 43.94921875 C-101.32914062 43.335625 -100.71296875 42.72203125 -100.078125 42.08984375 C-99.51480469 41.5287793 -98.95148438 40.96771484 -98.37109375 40.38964844 C-96.890625 39.16796875 -96.890625 39.16796875 -94.890625 39.16796875 C-94.560625 38.17796875 -94.230625 37.18796875 -93.890625 36.16796875 C-91.328125 34.98046875 -91.328125 34.98046875 -88.890625 34.16796875 C-88.890625 33.50796875 -88.890625 32.84796875 -88.890625 32.16796875 C-84.50600962 29.16796875 -84.50600962 29.16796875 -81.890625 29.16796875 C-81.890625 28.50796875 -81.890625 27.84796875 -81.890625 27.16796875 C-73.88848893 21.35299589 -64.97302993 17.00476027 -55.890625 13.16796875 C-55.23497559 12.88566406 -54.57932617 12.60335938 -53.90380859 12.3125 C-36.76704762 4.99612943 -18.72166623 0.02691224 0 0 Z " fill="#9FA4A6" transform="translate(479.890625,442.83203125)"/>
<path d="M0 0 C0.66 0.33 1.32 0.66 2 1 C-4.27648579 7.43927649 -4.27648579 7.43927649 -7.5 9.9375 C-9.62647393 11.69184099 -11.1733461 13.30833223 -12.93359375 15.3984375 C-17.39719101 20.54932399 -22.19874281 25.34917569 -27.02514648 30.15551758 C-28.56676398 31.69174908 -30.10292808 33.23328967 -31.63867188 34.77539062 C-32.63509603 35.77115428 -33.63183019 36.76660786 -34.62890625 37.76171875 C-35.51650635 38.64819092 -36.40410645 39.53466309 -37.31860352 40.44799805 C-40.11813234 43.1124317 -43.00596346 45.55851451 -46 48 C-46.66 47.67 -47.32 47.34 -48 47 C-47.06409496 45.8944811 -46.12620142 44.79064547 -45.1875 43.6875 C-44.40439453 42.76517578 -44.40439453 42.76517578 -43.60546875 41.82421875 C-40.6626898 38.48047722 -40.6626898 38.48047722 -39 37 C-38.34 37 -37.68 37 -37 37 C-37 36.34 -37 35.68 -37 35 C-35.625 33.375 -35.625 33.375 -34 32 C-33.34 32 -32.68 32 -32 32 C-32 31.34 -32 30.68 -32 30 C-31.34 30 -30.68 30 -30 30 C-29.79375 29.443125 -29.5875 28.88625 -29.375 28.3125 C-28.03153247 26.05303189 -26.94842298 25.0001344 -24.9375 23.375 C-21.99175287 21.32880603 -21.99175287 21.32880603 -21 19 C-20.34 19 -19.68 19 -19 19 C-19 18.34 -19 17.68 -19 17 C-17.63671875 15.625 -17.63671875 15.625 -15.6875 14 C-12.06032205 10.91982914 -8.51291172 7.77130551 -5 4.5625 C-4.05125 3.69753906 -3.1025 2.83257812 -2.125 1.94140625 C-1.073125 0.98041016 -1.073125 0.98041016 0 0 Z " fill="#7C8485" transform="translate(173,112)"/>
<path d="M0 0 C4.31392226 0.4793247 6.16569547 1.7457985 9 5 C7.68 4.67 6.36 4.34 5 4 C5.66 5.98 6.32 7.96 7 10 C5.5 8.625 5.5 8.625 4 7 C4 6.34 4 5.68 4 5 C3.34 5 2.68 5 2 5 C1.34 3.35 0.68 1.7 0 0 Z " fill="#88B9C4" transform="translate(147,997)"/>
<path d="M0 0 C1.5 1.375 1.5 1.375 3 3 C3 3.66 3 4.32 3 5 C3.66 5 4.32 5 5 5 C5.33 6.32 5.66 7.64 6 9 C2.00544473 8.38545304 -0.74466336 6.29353263 -4 4 C-3.67 3.34 -3.34 2.68 -3 2 C-1.68 2.66 -0.36 3.32 1 4 C0.67 2.68 0.34 1.36 0 0 Z " fill="#9FA5A6" transform="translate(914,232)"/>
<path d="M0 0 C2.61724095 2.36797991 4.32861729 4.89600354 6 8 C6 8.66 6 9.32 6 10 C3.03824877 9.38722388 1.61941217 8.74627478 -1 7 C-1 6.34 -1 5.68 -1 5 C-0.34 5 0.32 5 1 5 C0.67 3.35 0.34 1.7 0 0 Z " fill="#A4AAAB" transform="translate(179,893)"/>
</svg>
