<?xml version="1.0" standalone="no"?>
<!DOCTYPE svg PUBLIC "-//W3C//DTD SVG 20010904//EN"
 "http://www.w3.org/TR/2001/REC-SVG-20010904/DTD/svg10.dtd">
<svg version="1.0" xmlns="http://www.w3.org/2000/svg"
 width="1216.000000pt" height="1217.000000pt" viewBox="0 0 1216.000000 1217.000000"
 preserveAspectRatio="xMidYMid meet">

<g transform="translate(0.000000,1217.000000) scale(0.100000,-0.100000)"
fill="#000000" stroke="none">
<path d="M9622 6888 c3 -1055 4 -1064 25 -1139 96 -339 326 -578 648 -675 78
-23 113 -27 258 -32 l167 -4 0 176 0 176 -92 0 c-212 1 -350 52 -473 174 -46
46 -84 96 -108 142 -69 134 -67 86 -67 1222 l0 1022 -180 0 -181 0 3 -1062z"/>
<path d="M10963 7930 c-223 -45 -302 -322 -135 -472 61 -55 105 -71 192 -71
87 0 131 16 191 70 65 59 84 104 84 203 0 68 -5 93 -22 125 -58 108 -189 169
-310 145z m143 -69 c150 -68 166 -293 26 -386 -138 -91 -321 12 -322 183 0
161 154 267 296 203z"/>
<path d="M10923 7793 c-10 -3 -13 -41 -13 -139 l0 -134 35 0 35 0 0 55 c0 51
2 55 23 55 34 0 54 -20 67 -67 10 -40 13 -43 45 -43 19 0 35 1 35 3 0 20 -33
107 -44 116 -12 10 -10 16 10 36 41 41 28 95 -27 114 -32 11 -143 14 -166 4z
m135 -55 c30 -30 -2 -68 -59 -68 -16 0 -19 7 -19 40 0 39 1 40 33 40 18 0 38
-5 45 -12z"/>
<path d="M1710 6849 c-135 -16 -298 -76 -410 -152 -66 -45 -176 -154 -225
-222 -331 -466 -158 -1121 359 -1361 132 -61 222 -79 386 -78 114 1 161 5 222
22 111 30 215 76 296 130 40 27 337 295 687 620 338 315 639 588 668 606 81
51 162 78 257 83 102 6 178 -8 257 -47 196 -99 316 -290 317 -504 1 -362 -338
-634 -686 -552 l-58 13 0 -178 0 -179 28 -7 c15 -5 88 -8 162 -8 108 1 152 5
218 23 318 86 557 319 653 637 16 53 22 107 26 220 4 137 2 159 -21 249 -150
581 -784 860 -1318 579 -38 -20 -96 -57 -128 -82 -32 -25 -328 -297 -657 -604
-329 -307 -620 -573 -648 -591 -92 -61 -157 -79 -280 -80 -128 -1 -205 20
-302 83 -107 70 -214 210 -239 314 l-6 27 406 0 405 0 281 261 280 262 -22 36
c-56 93 -127 188 -178 238 -181 178 -467 273 -730 242z m243 -355 c33 -8 83
-27 111 -41 70 -35 158 -103 154 -120 -2 -7 -50 -56 -108 -108 l-105 -94 -357
-1 c-256 0 -358 3 -358 11 0 32 72 142 135 205 75 76 163 127 258 150 73 17
198 17 270 -2z"/>
<path d="M6025 6854 c-11 -2 -51 -11 -88 -20 -200 -46 -402 -180 -523 -350
-57 -79 -118 -209 -146 -309 l-23 -80 -3 -1077 -3 -1078 184 0 184 0 -5 619
c-3 340 -2 627 2 636 6 15 9 15 39 -4 95 -63 212 -111 330 -136 90 -20 268
-19 365 1 351 72 631 351 708 707 25 115 21 291 -10 409 -81 316 -318 561
-631 653 -73 22 -115 28 -225 30 -74 2 -144 2 -155 -1z m269 -360 c192 -49
360 -220 407 -414 36 -149 5 -315 -83 -446 -201 -300 -633 -333 -878 -67 -192
209 -201 513 -21 740 68 87 195 165 310 192 60 15 199 12 265 -5z"/>
<path d="M8160 6846 c-195 -44 -341 -126 -481 -273 -256 -268 -320 -674 -159
-1011 116 -243 309 -407 576 -488 81 -25 103 -28 249 -28 146 0 168 3 250 28
498 151 771 660 618 1151 -98 314 -362 552 -685 619 -91 19 -287 20 -368 2z
m320 -348 c174 -37 346 -200 402 -381 31 -100 30 -245 -1 -337 -64 -184 -217
-327 -401 -375 -89 -23 -242 -16 -325 15 -81 31 -186 101 -235 158 -227 265
-168 665 127 852 125 80 272 103 433 68z"/>
</g>
</svg>
