<?xml version="1.0" encoding="UTF-8"?>
<svg id="Layer_1" data-name="Layer 1" xmlns="http://www.w3.org/2000/svg" viewBox="0 0 1071.86 575.57">
  <defs>
    <style>
      .cls-1 {
        fill: #d61c27;
      }

      .cls-2 {
        fill: #025ba5;
      }

      .cls-3 {
        fill: #c4161c;
      }
    </style>
  </defs>
  <g>
    <path class="cls-3" d="m147.14,414.18h-19.43v-50.7l117.51-148.64s.05-.06.07-.09l23.67-29.94c2.02-2.55,2.4-6.09.98-9.02-1.41-2.93-4.43-4.82-7.68-4.82H23.72c-4.71,0-8.54,3.83-8.54,8.54s3.83,8.54,8.54,8.54h220.9l-12.75,16.13s-.04.05-.06.07h0s-119.35,150.97-119.35,150.97c-1.19,1.51-1.84,3.39-1.84,5.29v62.2c0,4.71,3.83,8.54,8.54,8.54h27.97c4.71,0,8.54-3.83,8.54-8.54s-3.83-8.54-8.54-8.54Z"/>
    <path class="cls-3" d="m345.99,351.98h-138.4l134.03-169.84c1.18-1.49,1.84-3.37,1.84-5.29v-52.26c0-4.71-3.83-8.54-8.54-8.54H122.78c-4.71,0-8.54,3.83-8.54,8.54s3.83,8.54,8.54,8.54h203.61v40.76l-143.11,181.34c-2.01,2.55-2.4,6.09-.98,9.01,1.42,2.92,4.43,4.81,7.68,4.81h147.48v189.62c0,4.71,3.83,8.54,8.54,8.54s8.54-3.83,8.54-8.54v-198.16c0-4.71-3.83-8.54-8.54-8.54Z"/>
  </g>
  <path class="cls-3" d="m706.46,430.56c-26.3,0-48.7-10.73-66.58-31.9-17.58-20.81-26.49-47.72-26.49-79.97,0-36.84,8.74-66.41,25.99-87.9,17.64-21.96,41.48-33.09,70.88-33.09,13.73,0,26.17,3.09,36.98,9.2,4.67,2.64,9.02,5.77,12.96,9.33v-78.92c0-3.98,3.24-7.22,7.22-7.22s7.22,3.24,7.22,7.22v98.76c0,3.21-2.15,6.06-5.24,6.94-.65.19-1.32.28-2,.28-2.51,0-4.79-1.27-6.11-3.4-5.41-8.67-12.53-15.55-21.16-20.42-8.61-4.87-18.66-7.34-29.87-7.34-25.15,0-44.65,9.06-59.62,27.69-15.14,18.86-22.81,45.39-22.81,78.86,0,28.74,7.77,52.51,23.08,70.65,15.22,18.02,33.39,26.78,55.55,26.78,13.36,0,24.57-2.5,33.3-7.42,8.77-4.95,16.79-13.14,23.84-24.34,1.33-2.11,3.61-3.38,6.11-3.38.67,0,1.35.1,2,.28,3.07.89,5.22,3.74,5.22,6.94v21.46h38.16V20.56c0-3.98,3.24-7.22,7.22-7.22s7.22,3.24,7.22,7.22v402.73c0,3.98-3.24,7.22-7.22,7.22h-52.61c-3.98,0-7.22-3.24-7.22-7.22v-14.17c-4.9,4.98-10.15,9.06-15.64,12.15-10.93,6.16-24.52,9.28-40.39,9.28Zm15.58-45.58c-17.84,0-31.41-6.88-40.32-20.45-8.29-12.59-12.49-29.36-12.49-49.83,0-19,4.1-35.27,12.19-48.33,8.78-14.18,22.57-21.37,40.99-21.37,12.07,0,22.84,3.89,31.99,11.57,14.44,12.31,21.76,32.44,21.76,59.85,0,19.53-4.47,35.81-13.27,48.4-9.37,13.38-23.12,20.17-40.86,20.17Zm.38-125.55c-13.27,0-22.66,4.75-28.71,14.53-6.66,10.75-10.03,24.46-10.03,40.74,0,17.61,3.4,31.7,10.11,41.9,6.16,9.38,15.4,13.94,28.25,13.94s22.43-4.58,29.03-14.01c7.07-10.11,10.66-23.6,10.66-40.11,0-22.99-5.6-39.41-16.65-48.82-6.54-5.49-13.96-8.16-22.67-8.16Z"/>
  <g>
    <path class="cls-3" d="m755.26,255.56c-9.41-7.89-20.46-11.89-32.85-11.89-18.91,0-33.07,7.4-42.11,21.99-8.22,13.28-12.39,29.78-12.39,49.03,0,20.73,4.27,37.74,12.71,50.56,9.17,13.96,23.11,21.04,41.42,21.04s32.31-6.98,41.94-20.74c8.96-12.81,13.51-29.34,13.51-49.15,0-27.82-7.48-48.29-22.22-60.85Zm6.55,108.49c-9.11,13.01-22.49,19.61-39.78,19.61s-30.56-6.68-39.22-19.85c-8.14-12.37-12.27-28.89-12.27-49.11,0-18.75,4.04-34.78,12-47.64,8.53-13.77,21.94-20.75,39.87-20.75,11.75,0,22.23,3.79,31.14,11.26,14.14,12.05,21.29,31.83,21.29,58.84,0,19.26-4.39,35.28-13.03,47.64Z"/>
    <path class="cls-3" d="m745.93,266.59c-6.79-5.7-14.49-8.47-23.52-8.47-13.76,0-23.52,4.96-29.83,15.16-6.79,10.96-10.23,24.91-10.23,41.43,0,17.87,3.48,32.21,10.33,42.62,6.43,9.78,16.03,14.53,29.35,14.53s23.24-4.77,30.11-14.57c7.24-10.34,10.9-24.08,10.9-40.87,0-23.39-5.76-40.16-17.11-49.82Zm4.05,89.18c-6.34,9.05-15.48,13.45-27.95,13.45s-21.25-4.36-27.15-13.34c-6.57-9.98-9.9-23.84-9.9-41.18,0-16.03,3.31-29.5,9.84-40.04,5.79-9.36,14.82-13.91,27.59-13.91,8.39,0,15.53,2.57,21.82,7.86,10.72,9.13,16.17,25.22,16.17,47.8,0,16.23-3.51,29.48-10.42,39.36Z"/>
    <path class="cls-3" d="m822.31,12.02c-4.71,0-8.54,3.83-8.54,8.54v387.78h-35.53v-20.14c0-3.78-2.54-7.15-6.17-8.2-.77-.22-1.57-.34-2.37-.34-2.96,0-5.66,1.49-7.23,4-6.93,11.01-14.79,19.05-23.37,23.89-8.53,4.81-19.52,7.25-32.65,7.25-21.74,0-39.59-8.61-54.54-26.31-15.11-17.89-22.77-41.37-22.77-69.8,0-33.16,7.58-59.41,22.52-78.03,14.7-18.3,33.86-27.2,58.59-27.2,10.99,0,20.82,2.41,29.23,7.16,8.44,4.76,15.4,11.48,20.69,19.97,1.56,2.52,4.27,4.02,7.23,4.02.8,0,1.6-.11,2.38-.34,3.63-1.03,6.18-4.41,6.18-8.2v-98.76c0-4.71-3.83-8.54-8.54-8.54s-8.54,3.83-8.54,8.54v76.03c-3.41-2.84-7.09-5.39-11-7.59-11.01-6.22-23.67-9.37-37.63-9.37-29.81,0-54,11.3-71.9,33.58-17.44,21.73-26.29,51.58-26.29,88.72,0,32.57,9.02,59.76,26.81,80.82,18.14,21.48,40.88,32.37,67.58,32.37,16.1,0,29.91-3.18,41.04-9.45,4.76-2.68,9.34-6.09,13.67-10.17v11.04c0,4.71,3.83,8.54,8.54,8.54h52.61c4.71,0,8.54-3.83,8.54-8.54V20.56c0-4.71-3.83-8.54-8.54-8.54Zm5.9,411.27c0,3.26-2.64,5.9-5.9,5.9h-52.61c-3.26,0-5.9-2.64-5.9-5.9v-17.47c-5.45,5.98-11.33,10.77-17.6,14.31-10.73,6.05-24.1,9.11-39.75,9.11-25.89,0-47.95-10.58-65.57-31.43-17.37-20.57-26.18-47.19-26.18-79.12,0-36.53,8.65-65.83,25.7-87.07,17.37-21.63,40.87-32.6,69.85-32.6,13.51,0,25.73,3.04,36.33,9.03,5.49,3.11,10.48,6.86,14.93,11.24v-81.97c0-3.26,2.64-5.9,5.9-5.9s5.9,2.64,5.9,5.9v98.76c0,2.63-1.75,4.95-4.28,5.67-.54.16-1.1.23-1.64.23-2,0-3.9-1.02-5-2.78-5.52-8.86-12.8-15.88-21.63-20.87-8.81-4.98-19.08-7.51-30.52-7.51-25.58,0-45.41,9.22-60.64,28.18-15.33,19.1-23.1,45.91-23.1,79.68,0,29.06,7.87,53.11,23.39,71.5,15.49,18.34,33.99,27.25,56.55,27.25,13.59,0,25.01-2.55,33.95-7.59,8.96-5.06,17.14-13.4,24.3-24.78,1.1-1.75,3.01-2.76,5-2.76.54,0,1.09.08,1.64.23,2.52.73,4.27,3.04,4.27,5.67v22.78h40.8V20.56c0-3.26,2.64-5.9,5.9-5.9s5.9,2.64,5.9,5.9v402.73Z"/>
  </g>
  <g>
    <path class="cls-3" d="m427.81,292.28c0,4.71,3.83,8.54,8.54,8.54h93.26c2.36,0,4.63-.99,6.24-2.71,1.61-1.72,2.44-4.06,2.28-6.41-1.15-16.67-6.99-29.65-17.37-38.59-10.18-8.79-22.86-13.24-37.68-13.24-4.71,0-8.54,3.83-8.54,8.54s3.83,8.54,8.54,8.54c10.76,0,19.43,2.98,26.53,9.1,5.05,4.35,8.39,10.16,10.15,17.7h-83.42c-4.71,0-8.54,3.83-8.54,8.54Z"/>
    <path class="cls-3" d="m592.46,285.6c-2.71-17.44-8.72-33.01-17.87-46.3-10.25-15.19-23.5-26.51-39.35-33.62-15.48-6.93-33.03-10.45-52.18-10.45-32.56,0-59.5,10.5-80.09,31.22-20.57,20.71-31,50.49-31,88.52,0,40.8,11.7,70.93,34.77,89.53,22.53,18.16,48.86,27.36,78.28,27.36,35.71,0,64.01-11.07,84.12-32.9,13.13-13.95,20.64-28.17,22.31-42.24.28-2.42-.48-4.86-2.09-6.68-1.63-1.83-3.95-2.87-6.39-2.87h-55.27c-3.17,0-6.06,1.74-7.54,4.54-2.67,5.04-5.7,8.96-9,11.64-6.2,5.09-14.26,7.56-24.65,7.56s-18.45-2.18-25.31-6.48c-1.36-.85-2.92-1.3-4.52-1.3-2.96,0-5.67,1.5-7.25,4-2.5,3.99-1.29,9.27,2.69,11.77,9.62,6.03,21.19,9.09,34.39,9.09,14.31,0,26.24-3.84,35.46-11.42,3.91-3.18,7.5-7.32,10.66-12.32h39.45c-2.86,7.48-8.04,15.22-15.43,23.07-16.79,18.23-40.88,27.46-71.63,27.46-25.42,0-48.15-7.93-67.56-23.58-18.85-15.2-28.41-40.85-28.41-76.24,0-33.36,8.76-59.09,26.04-76.48,17.26-17.37,40.13-26.18,67.98-26.18,16.73,0,31.93,3.01,45.19,8.96,12.89,5.77,23.74,15.07,32.22,27.65,7.72,11.19,12.79,24.4,15.1,39.28,1.14,7.46,1.72,17.97,1.74,31.25h-142.3c-4.71,0-8.54,3.83-8.54,8.54s3.83,8.54,8.54,8.54h150.76c.91,0,1.8-.14,2.64-.41.05-.02.1-.03.15-.05,1.3-.44,2.48-1.21,3.43-2.22.07-.07.13-.13.19-.21.66-.74,1.18-1.58,1.54-2.5.02-.06.05-.11.07-.17.34-.91.52-1.87.53-2.86.27-18.3-.36-32.6-1.88-42.51Z"/>
  </g>
  <g>
    <path class="cls-2" d="m1069.92,285.6c-2.71-17.44-8.72-33.01-17.87-46.3-10.25-15.19-23.5-26.51-39.35-33.62-15.48-6.93-33.03-10.45-52.18-10.45-32.56,0-59.5,10.5-80.09,31.22-20.57,20.71-31,50.49-31,88.52,0,40.8,11.7,70.93,34.77,89.53,22.52,18.16,48.86,27.36,78.28,27.36,35.71,0,64.01-11.07,84.12-32.9,13.13-13.95,20.64-28.17,22.31-42.24.28-2.42-.48-4.85-2.09-6.68-1.63-1.83-3.95-2.87-6.39-2.87h-55.26c-3.17,0-6.06,1.74-7.54,4.53-2.67,5.04-5.7,8.96-9,11.64-6.2,5.09-14.26,7.56-24.65,7.56s-18.46-2.18-25.31-6.48c-1.36-.85-2.92-1.3-4.52-1.3-2.96,0-5.67,1.5-7.25,4-2.5,3.99-1.29,9.27,2.69,11.77,9.62,6.03,21.19,9.09,34.39,9.09,14.31,0,26.24-3.84,35.45-11.42,3.91-3.18,7.5-7.32,10.66-12.32h39.45c-2.86,7.48-8.04,15.22-15.43,23.07-16.79,18.23-40.88,27.46-71.62,27.46-25.42,0-48.15-7.93-67.56-23.58-18.85-15.2-28.41-40.85-28.41-76.24,0-33.36,8.76-59.09,26.04-76.48,17.26-17.37,40.13-26.18,67.98-26.18,16.73,0,31.93,3.01,45.19,8.96,12.9,5.77,23.74,15.07,32.22,27.65,7.72,11.19,12.79,24.4,15.1,39.28,1.14,7.46,1.72,17.97,1.74,31.25h-142.3c-4.71,0-8.54,3.83-8.54,8.54s3.83,8.54,8.54,8.54h150.76c.91,0,1.8-.14,2.64-.41.05-.02.1-.03.15-.05,1.3-.44,2.48-1.21,3.43-2.21.01-.01.03-.03.04-.04.05-.05.09-.1.14-.15.67-.75,1.19-1.59,1.55-2.52.03-.06.05-.12.07-.18.34-.91.52-1.88.53-2.86.27-18.3-.36-32.59-1.88-42.5Z"/>
    <path class="cls-2" d="m905.27,292.28c0,4.71,3.83,8.54,8.54,8.54h93.26c2.36,0,4.63-.99,6.24-2.71,1.61-1.72,2.44-4.06,2.28-6.41-1.15-16.67-6.99-29.65-17.37-38.59-10.18-8.79-22.86-13.24-37.68-13.24-4.71,0-8.54,3.83-8.54,8.54s3.83,8.54,8.54,8.54c10.76,0,19.43,2.98,26.53,9.1,5.05,4.35,8.39,10.16,10.15,17.7h-83.42c-4.71,0-8.54,3.83-8.54,8.54Z"/>
  </g>
  <path class="cls-1" d="m332.02,568.94c-6.18-7.66-4.99-18.88,2.67-25.06,7.66-6.18,18.88-4.99,25.06,2.67,6.18,7.66,4.99,18.88-2.67,25.06-7.66,6.18-18.88,4.99-25.06-2.67Z"/>
  <path class="cls-3" d="m843.07,20.06c0,11.08-8.98,20.06-20.06,20.06s-20.06-8.98-20.06-20.06,8.98-20.06,20.06-20.06,20.06,8.98,20.06,20.06Z"/>
  <path class="cls-3" d="m786.81,128.17c0,11.08-8.98,20.06-20.06,20.06s-20.06-8.98-20.06-20.06,8.98-20.06,20.06-20.06,20.06,8.98,20.06,20.06Z"/>
  <g>
    <path class="cls-2" d="m455.93,463.34v59.6c0,5.42,0,10.96.11,16.38h-15.63c-.26-1.94-.37-4.89-.45-7.33-3.09,4.58-7.42,8.9-19.81,8.9-16.22,0-27.96-12.07-27.96-29.9,0-19.29,15.06-30.88,29.55-30.88,11.97,0,16.57,4.55,18.22,6.87v-23.63h15.97Zm-47.39,47.3c0,9.58,5.62,17.64,15.99,17.64s15.88-7.04,15.88-17.84-4.09-17.8-15.71-17.8c-10.9,0-16.16,8.74-16.16,18Z"/>
    <path class="cls-2" d="m494.06,514.33c.52,8.26,6.33,14.54,15.92,14.54,7.55,0,11.34-2.6,13.76-6.79h15.89c-3.36,9.69-11.86,18.81-29.96,18.81-22.66,0-31.46-15.47-31.46-30.28,0-16.61,11.13-30.5,31.28-30.5,22.26,0,30.88,15.63,30.88,30.34,0,1.3,0,2.26-.08,3.87h-46.23Zm30.1-10.06c-.41-5.17-3.17-12.76-14.7-12.76-10.28,0-14.49,5.9-15.17,12.76h29.87Z"/>
    <path class="cls-2" d="m562.23,539.32v-75.98h15.89v75.98h-15.89Z"/>
    <path class="cls-2" d="m645.76,463.34h16.62v62.45h45.5v13.53h-62.12v-75.98Z"/>
    <path class="cls-2" d="m728.96,463.34h15.89v14.07h-15.89v-14.07Zm0,23.54h15.89v52.44h-15.89v-52.44Z"/>
    <path class="cls-2" d="m765.65,481.68h10.69v-18.34h15.97v18.34h13.87v11.75h-13.87v26.58c0,5.44,1.23,7.91,7.04,7.91,1.6,0,3.56-.03,5.16-.41v11.07c-2.96.9-6.78,1.21-10.73,1.21-13.48,0-17.44-5.89-17.44-17.17v-29.2h-10.69v-11.75Z"/>
    <path class="cls-2" d="m887.26,510.46c0,17.19-11.66,30.43-32.84,30.43s-31.79-14.43-31.79-30.39,11.42-30.39,32.48-30.39,32.15,15.76,32.15,30.35Zm-48.44.03c0,9.59,5.61,18.18,16.14,18.18s15.95-8.29,15.95-17.95-5.16-18.41-16.12-18.41-15.96,8.44-15.96,18.17Z"/>
    <path class="cls-2" d="m909.54,497.35c0-5.21,0-10.45-.11-15.66h15.51c.27,1.93.5,8.21.5,11.98,3.38-7.98,10.83-13.71,22.57-13.47v14.62c-13.11-.19-22.57,5.9-22.57,22.51v22h-15.89v-41.97Z"/>
    <path class="cls-2" d="m1020.91,523.77c0,6.9.34,14.28.48,15.55h-15.04c-.45-1.6-.59-5.41-.67-7.11-3.08,5.3-9.68,8.69-20.95,8.69-15.93,0-22.18-9.69-22.18-18.72,0-15.01,13.3-19.18,30.12-19.18h12.69v-2.21c0-5.19-2.24-9.63-11.9-9.63-8.88,0-10.89,3.55-11.76,7.48h-15.89c.55-7.28,5.6-18.53,27.45-18.53,23.74,0,27.65,11.3,27.65,20.9v22.75Zm-15.54-10.46c-1.47-.08-5.41-.08-12.39-.08-10.51,0-14.97,2.59-14.97,8.13,0,4.38,3.41,7.98,10.95,7.98,11.67,0,16.41-5.95,16.41-14.63v-1.4Z"/>
    <path class="cls-2" d="m1047.03,539.32v-75.98h15.89v75.98h-15.89Z"/>
  </g>
  <path class="cls-3" d="m111.31,136.94c-6.18-7.66-4.99-18.88,2.67-25.06,7.66-6.18,18.88-4.99,25.06,2.67,6.18,7.66,4.99,18.88-2.67,25.06-7.66,6.18-18.88,4.99-25.06-2.67Z"/>
  <path class="cls-3" d="m3.96,189.85c-6.18-7.66-4.99-18.88,2.67-25.06,7.66-6.18,18.88-4.99,25.06,2.67,6.18,7.66,4.99,18.88-2.67,25.06-7.66,6.18-18.88,4.99-25.06-2.67Z"/>
</svg>